<?xml version="1.0" encoding="utf-8" ?>
<svg baseProfile="full" height="2048" version="1.1" width="4096" xmlns="http://www.w3.org/2000/svg" xmlns:ev="http://www.w3.org/2001/xml-events" xmlns:xlink="http://www.w3.org/1999/xlink"><defs /><path d="M 1743.5,801.07 1719.91,808.04 1696.5,815.28 1673.27,822.76 1650.2,830.48 1627.31,838.43 1606.14,854.65 1585.24,871.03 1564.6,887.57 1544.18,904.24 1523.96,921.02 1503.9,937.89 1483.98,954.85 1464.16,971.87 1444.43,988.94 1424.76,1006.04 1405.12,1023.15 1385.47,1040.27 1365.8,1057.37 1376.78,1038.79 M 1385.74,1049.09 1365.8,1057.37" fill="none" stroke="blue" stroke-width="3.072px" /><path d="M 2277.0,628.23 2304.77,642.85 2331.72,657.99 2357.89,673.63 2383.3,689.72 2408.01,706.21 2432.05,723.09 2455.48,740.3 2478.34,757.84 2500.67,775.65 2522.51,793.73 2546.49,806.29 2570.16,819.13 2593.53,832.21 2616.6,845.53 2639.42,859.05 2661.99,872.77 2684.33,886.65 2663.33,881.64 M 2670.54,870.05 2684.33,886.65" fill="none" stroke="blue" stroke-width="3.072px" /><path d="M 2519.17,130.61 2408.96,144.02 2319.22,160.7 2247.07,179.75 2188.96,200.49 2141.7,222.45 2102.77,245.3 2070.28,268.81 2042.78,292.82 2019.22,317.23 1998.79,341.94 1980.89,366.89 1965.04,392.04 1950.89,417.35 1938.14,442.8 1926.57,468.35 1916.0,494.0 1906.27,519.72 1907.31,546.47 1908.28,573.21 1909.18,599.96 1910.03,626.71 1910.83,653.46 1911.59,680.2 1912.32,706.95 1913.01,733.7 1913.68,760.45 1914.32,787.2 1914.95,813.95 1915.56,840.7 1916.15,867.45 1916.73,894.2 1909.46,873.87 M 1923.11,873.58 1916.73,894.2" fill="none" stroke="tomato" stroke-width="3.072px" /><path d="M 3582.7,696.46 3595.79,720.29 3608.4,744.23 3620.6,768.25 3632.42,792.36 3643.93,816.53 3655.16,840.76 3666.15,865.04 3676.94,889.36 3687.56,913.72 3698.05,938.1 3708.43,962.51 3718.74,986.94 3704.48,970.72 M 3717.06,965.41 3718.74,986.94" fill="none" stroke="blue" stroke-width="3.072px" /><path d="M 239.8,1414.18 209.44,1423.83 178.47,1432.8 146.89,1441.05 114.75,1448.56 82.07,1455.29 48.89,1461.21 15.26,1466.3 0.0,1468.2 M 4096.0,1468.2 4077.24,1470.53 4042.89,1473.89 4008.3,1476.34 3973.52,1477.9 3938.65,1478.53 3912.99,1461.25 3888.4,1443.5 3864.81,1425.32 3842.14,1406.76 3820.32,1387.85 3799.29,1368.62 3778.97,1349.1 3759.31,1329.33 3740.24,1309.32 3721.72,1289.11 3703.69,1268.71 3686.1,1248.14 3676.04,1223.16 3666.22,1198.14 3656.61,1173.08 3647.16,1147.99 3637.86,1122.87 3628.66,1097.73 3619.55,1072.58 3610.48,1047.42 3623.85,1064.38 M 3611.0,1069.01 3610.48,1047.42" fill="none" stroke="gold" stroke-width="3.072px" /><path d="M 1910.61,532.98 1919.6,507.99 1929.3,483.06 1939.86,458.22 1951.4,433.46 1964.12,408.82 1978.24,384.3 1994.03,359.94 2011.85,335.78 2032.16,311.86 2055.55,288.23 2082.77,264.98 2114.87,242.22 2153.18,220.09 2199.51,198.82 2256.23,178.71 2326.29,160.18 2413.01,143.88 2519.17,130.61 2499.7,139.92 M 2498.0,126.38 2519.17,130.61" fill="none" stroke="gold" stroke-width="3.072px" /><path d="M 2697.83,906.32 2715.55,927.13 2733.1,948.01 2750.51,968.94 2767.83,989.92 2785.1,1010.91 2802.34,1031.92 2819.59,1052.92 2836.9,1073.9 2854.29,1094.85 2871.8,1115.75 2889.47,1136.58 2907.34,1157.32 2925.45,1177.97 2943.5,1198.6 2961.86,1219.1 2980.58,1239.46 2999.7,1259.64 3019.28,1279.63 3039.36,1299.41 3059.98,1318.96 3081.22,1338.24 3103.11,1357.22 3125.73,1375.88 3149.13,1394.19 3173.37,1412.1 3198.53,1429.57 3224.65,1446.57 3251.81,1463.04 3280.07,1478.94 3307.5,1493.74 3336.02,1507.94 3365.68,1521.5 3396.52,1534.36 3428.55,1546.45 3461.79,1557.74 3496.23,1568.14 3531.85,1577.61 3568.6,1586.08 3606.41,1593.5 3644.9,1586.82 3682.42,1579.06 3718.86,1570.25 3754.16,1560.46 3788.29,1549.75 3821.22,1538.18 3852.96,1525.81 3883.51,1512.69 3912.92,1498.88 3941.21,1484.44 3976.11,1483.29 4010.86,1481.21 4045.39,1478.23 4079.62,1474.35 4096.0,1472.05 M 0.0,1472.05 17.47,1469.6 50.89,1464.0 83.82,1457.58 116.21,1450.36 148.03,1442.38 179.25,1433.67 209.84,1424.26 239.8,1414.18 222.56,1427.18 M 218.21,1414.24 239.8,1414.18" fill="none" stroke="tomato" stroke-width="3.072px" /><path d="M 460.71,1094.0 434.18,1088.5 407.7,1082.9 381.27,1077.2 354.87,1071.42 328.5,1065.56 302.17,1059.63 275.86,1053.64 249.58,1047.6 223.31,1041.53 197.05,1035.42 170.81,1029.3 145.22,1020.39 119.62,1011.49 94.01,1002.6 68.38,993.75 42.71,984.94 17.0,976.19 0.0,970.47 M 4096.0,970.47 4087.24,967.52 4061.43,958.94 4035.54,950.45 4009.58,942.09 3983.54,933.85 3957.4,925.75 3931.17,917.81 3907.29,925.07 3883.5,932.45 3859.78,939.96 3836.13,947.58 3812.54,955.29 3789.02,963.09 3765.55,970.98 3742.12,978.93 3718.74,986.94 3735.9,973.84 M 3740.33,986.76 3718.74,986.94" fill="none" stroke="skyblue" stroke-width="3.072px" /><path d="M 1365.8,1057.37 1385.75,1040.71 1405.68,1024.03 1425.6,1007.34 1445.56,990.68 1465.56,974.04 1485.64,957.45 1505.83,940.93 1526.14,924.48 1546.62,908.13 1567.28,891.89 1588.15,875.79 1609.26,859.83 1630.64,844.04 1655.85,835.92 1681.25,828.07 1706.83,820.5 1732.6,813.22 1758.56,806.26 1784.71,799.61 1811.04,793.31 1837.56,787.35 1864.26,781.75 1891.13,776.52 1918.17,771.68 1945.36,767.23 1972.7,763.18 2000.18,759.55 2027.79,756.34 2008.23,765.49 M 2006.65,751.93 2027.79,756.34" fill="none" stroke="skyblue" stroke-width="3.072px" /><path d="M 1365.8,1057.37 1385.75,1040.71 1405.68,1024.03 1425.6,1007.34 1445.56,990.68 1465.56,974.04 1485.64,957.45 1505.83,940.93 1526.14,924.48 1546.62,908.13 1567.28,891.89 1588.15,875.79 1609.26,859.83 1630.64,844.04 1656.59,836.65 1682.71,829.54 1709.0,822.73 1735.47,816.23 1762.1,810.05 1788.9,804.21 1815.87,798.71 1842.99,793.57 1870.27,788.79 1897.7,784.4 1925.25,780.39 1952.94,776.79 1980.74,773.59 2008.65,770.8 2036.64,768.43 2065.43,766.33 2094.29,764.69 2123.2,763.51 2152.15,762.78 2181.11,762.52 2210.08,762.72 2239.03,763.38 2267.95,764.5 2296.81,766.08 2325.61,768.11 2354.33,770.59 2382.95,773.52 2411.46,776.87 2439.84,780.66 2468.09,784.86 2496.19,789.47 2524.14,794.48 2551.39,788.97 2578.81,783.84 2606.4,779.1 2634.13,774.76 2662.0,770.83 2690.01,767.32 2718.13,764.24 2746.36,761.59 2774.68,759.38 2803.07,757.63 2831.52,756.32 2860.01,755.47 2888.52,755.08 2917.04,755.14 2945.55,755.66 2924.95,762.11 M 2925.2,748.46 2945.55,755.66" fill="none" stroke="skyblue" stroke-width="3.072px" /><path d="M 3604.49,1577.02 3642.14,1572.0 3679.09,1565.91 3715.22,1558.8 3750.47,1550.72 3784.76,1541.71 3818.05,1531.83 3850.32,1521.12 3881.56,1509.64 3911.78,1497.44 3940.97,1484.56 3973.02,1473.6 4004.16,1461.88 4034.4,1449.46 4063.75,1436.38 4092.23,1422.69 4096.0,1420.75 M 0.0,1420.75 23.87,1408.43 50.69,1393.65 76.74,1378.38 102.05,1362.66 126.66,1346.54 150.62,1330.03 177.39,1319.15 203.72,1307.84 229.62,1296.13 255.1,1284.05 280.18,1271.62 304.88,1258.86 329.21,1245.8 353.2,1232.45 376.86,1218.84 400.22,1205.0 423.29,1190.94 446.1,1176.68 468.67,1162.24 491.03,1147.64 480.84,1129.79 470.73,1111.9 460.71,1094.0 476.67,1108.53 M 464.76,1115.2 460.71,1094.0" fill="none" stroke="skyblue" stroke-width="3.072px" /><path d="M 2945.55,755.66 2971.78,750.31 2998.19,745.35 3024.78,740.79 3051.54,736.65 3078.44,732.94 3105.49,729.67 3132.66,726.83 3159.93,724.45 3187.69,717.52 3215.74,711.09 3244.06,705.15 3272.65,699.73 3301.49,694.83 3330.56,690.48 3359.82,686.69 3389.27,683.47 3418.87,680.82 3448.6,678.77 3478.42,677.3 3508.3,676.43 3538.21,676.16 3568.13,676.5 3547.57,683.1 M 3547.72,669.44 3568.13,676.5" fill="none" stroke="skyblue" stroke-width="3.072px" /><path d="M 762.82,1575.45 781.79,1553.3 799.44,1530.88 815.93,1508.25 831.39,1485.42 845.95,1462.42 859.71,1439.26 872.77,1415.98 885.2,1392.58 897.07,1369.08 908.45,1345.49 919.4,1321.82 946.43,1315.88 973.21,1309.52 999.74,1302.73 1026.01,1295.54 1052.03,1287.97 1077.77,1280.02 1103.26,1271.71 1128.48,1263.07 1153.43,1254.1 1178.14,1244.83 1202.59,1235.27 1186.0,1249.08 M 1181.03,1236.37 1202.59,1235.27" fill="none" stroke="blue" stroke-width="3.072px" /><path d="M 2414.17,906.68 2434.28,923.31 2454.24,940.03 2474.05,956.83 2493.77,973.69 2513.4,990.59 2532.99,1007.53 2552.55,1024.48 2532.6,1016.22 M 2541.54,1005.91 2552.55,1024.48" fill="none" stroke="gold" stroke-width="3.072px" /><path d="M 3604.49,1577.02 3642.14,1572.0 3679.09,1565.91 3715.22,1558.8 3750.47,1550.72 3784.76,1541.71 3818.05,1531.83 3850.32,1521.12 3881.56,1509.64 3911.78,1497.44 3940.97,1484.56 3962.3,1506.52 3984.97,1528.11 4009.15,1549.28 4034.99,1569.97 4062.7,1590.12 4092.47,1609.64 4096.0,1611.71 M -0.0,1611.71 28.53,1628.45 63.09,1646.44 100.38,1663.5 140.6,1679.49 183.93,1694.27 230.48,1707.68 280.28,1719.56 333.23,1729.72 389.07,1737.99 447.37,1744.23 496.29,1732.31 541.74,1718.99 583.8,1704.42 622.64,1688.76 658.48,1672.15 691.54,1654.71 722.09,1636.54 750.36,1617.74 776.57,1598.39 764.14,1616.05 M 756.04,1605.06 776.57,1598.39" fill="none" stroke="skyblue" stroke-width="3.072px" /><path d="M 1202.59,1235.27 1176.0,1229.43 1149.57,1223.27 1123.29,1216.81 1097.18,1210.05 1071.23,1203.01 1045.44,1195.71 1019.81,1188.15 994.34,1180.35 969.01,1172.32 943.83,1164.07 918.8,1155.62 891.48,1153.55 864.21,1151.25 836.97,1148.73 809.78,1146.01 782.63,1143.07 755.53,1139.94 728.48,1136.61 701.47,1133.09 674.52,1129.38 647.62,1125.5 620.77,1121.45 593.97,1117.24 567.22,1112.87 540.52,1108.35 513.87,1103.7 487.26,1098.91 460.71,1094.0 482.09,1091.01 M 479.6,1104.44 460.71,1094.0" fill="none" stroke="blue" stroke-width="3.072px" /><path d="M 2945.55,755.66 2917.15,754.7 2888.71,754.19 2860.27,754.14 2831.83,754.55 2803.41,755.41 2775.04,756.72 2746.73,758.49 2718.49,760.7 2690.34,763.35 2662.29,766.44 2634.36,769.95 2606.56,773.88 2578.91,778.22 2551.41,782.96 2524.06,788.09 2496.43,783.86 2468.66,780.02 2440.77,776.58 2412.78,773.56 2384.68,770.95 2356.5,768.77 2328.25,767.02 2299.94,765.71 2271.59,764.83 2243.22,764.4 2214.84,764.4 2186.47,764.85 2158.13,765.74 2129.82,767.06 2101.57,768.82 2073.39,771.02 2045.3,773.63 2065.06,764.94 M 2066.32,778.53 2045.3,773.63" fill="none" stroke="skyblue" stroke-width="3.072px" /><path d="M 1036.57,1979.86 850.31,1963.64 730.17,1942.92 651.04,1919.87 596.31,1895.55 556.59,1870.47 526.57,1844.92 503.1,1819.05 484.24,1792.96 468.73,1766.71 455.71,1740.35 426.61,1716.9 401.07,1692.97 378.48,1668.65 358.33,1644.01 340.21,1619.1 323.81,1593.97 308.86,1568.66 295.15,1543.19 282.49,1517.59 270.74,1491.87 259.78,1466.06 249.49,1440.16 239.8,1414.18 253.35,1430.98 M 240.56,1435.76 239.8,1414.18" fill="none" stroke="gold" stroke-width="3.072px" /><path d="M 762.82,1575.45 781.79,1553.3 799.44,1530.88 815.93,1508.25 831.39,1485.42 845.95,1462.42 859.71,1439.26 872.77,1415.98 885.2,1392.58 897.07,1369.08 908.45,1345.49 919.4,1321.82 891.79,1314.05 864.49,1305.84 837.52,1297.19 810.88,1288.14 784.56,1278.69 758.55,1268.88 732.86,1258.71 707.47,1248.22 682.38,1237.42 657.57,1226.32 633.04,1214.96 608.76,1203.34 584.73,1191.48 560.93,1179.42 537.35,1167.15 513.96,1154.7 490.76,1142.1 480.67,1126.09 470.65,1110.05 460.71,1094.0 477.3,1107.81 M 465.69,1115.0 460.71,1094.0" fill="none" stroke="gold" stroke-width="3.072px" /><path d="M 762.82,1575.45 781.79,1553.3 799.44,1530.88 815.93,1508.25 831.39,1485.42 845.95,1462.42 859.71,1439.26 872.77,1415.98 885.2,1392.58 897.07,1369.08 908.45,1345.49 919.4,1321.82 947.41,1315.5 975.16,1308.71 1002.62,1301.48 1029.8,1293.82 1056.7,1285.74 1083.31,1277.27 1109.63,1268.42 1135.66,1259.22 1161.42,1249.67 1186.9,1239.8 1212.11,1229.63 1229.62,1209.92 1246.83,1190.08 1263.76,1170.13 1280.46,1150.09 1296.96,1129.97 1313.29,1109.78 1329.49,1089.54 1345.59,1069.26 1338.2,1089.55 M 1327.51,1081.06 1345.59,1069.26" fill="none" stroke="skyblue" stroke-width="3.072px" /><path d="M 2027.79,756.34 2050.34,741.86 2073.36,727.67 2096.87,713.81 2120.89,700.31 2145.45,687.18 2170.57,674.46 2196.27,662.17 2222.57,650.35 2249.47,639.03 2277.0,628.23 2260.43,642.06 M 2255.44,629.35 2277.0,628.23" fill="none" stroke="blue" stroke-width="3.072px" /><path d="M 1275.71,1595.55 1312.91,1603.87 1351.22,1611.11 1390.53,1617.24 1430.71,1622.18 1471.59,1625.91 1512.99,1628.39 1554.7,1629.6 1534.03,1635.83 M 1534.43,1622.18 1554.7,1629.6" fill="none" stroke="gold" stroke-width="3.072px" /><path d="M 1468.13,287.35 1521.17,299.28 1570.19,312.8 1615.26,327.71 1656.6,343.83 1694.46,360.99 1729.16,379.06 1760.99,397.9 1790.25,417.41 1817.22,437.51 1842.15,458.11 1865.27,479.14 1886.78,500.56 1906.86,522.3 1888.53,544.15 1871.29,566.24 1855.01,588.54 1839.59,611.03 1824.94,633.68 1810.96,656.48 1797.6,679.41 1784.77,702.46 1772.42,725.6 1760.5,748.84 1748.96,772.15 1750.4,778.63 1739.29,760.13 M 1752.61,757.16 1750.4,778.63" fill="none" stroke="gold" stroke-width="3.072px" /><path d="M 3718.74,986.94 3714.99,1013.23 3711.25,1039.52 3707.5,1065.81 3703.73,1092.09 3699.93,1118.38 3696.09,1144.66 3692.19,1170.94 3688.21,1197.22 3684.14,1223.48 3679.97,1249.74 3675.66,1275.03 3671.2,1300.31 3666.59,1325.57 3661.79,1350.82 3656.78,1376.06 3651.54,1401.27 3646.03,1426.47 3640.2,1451.65 3634.02,1476.79 3627.43,1501.91 3620.36,1526.99 3612.74,1552.03 3604.49,1577.02 3604.43,1555.43 M 3617.39,1559.72 3604.49,1577.02" fill="none" stroke="skyblue" stroke-width="3.072px" /><path d="M 1584.82,1643.3 1577.87,1668.89 1570.05,1694.44 1561.14,1719.93 1550.87,1745.37 1538.86,1770.74 1524.6,1796.0 1507.34,1821.14 1486.0,1846.09 1458.89,1870.78 1423.33,1895.09 1374.81,1918.81 1305.4,1941.52 1200.73,1962.43 1036.57,1979.86 1056.22,1970.91 M 1057.66,1984.49 1036.57,1979.86" fill="none" stroke="gold" stroke-width="3.072px" /><path d="M 460.71,1094.0 487.14,1099.3 513.62,1104.49 540.16,1109.54 566.75,1114.45 593.39,1119.21 620.09,1123.81 646.84,1128.25 673.66,1132.51 700.53,1136.6 727.46,1140.5 754.45,1144.2 781.49,1147.7 808.58,1150.99 835.73,1154.07 862.93,1156.93 890.18,1159.56 917.47,1161.96 944.78,1157.54 972.01,1152.88 999.17,1148.01 1026.24,1142.93 1053.24,1137.65 1080.16,1132.18 1107.0,1126.53 1133.77,1120.71 1160.46,1114.73 1187.08,1108.6 1213.64,1102.33 1240.14,1095.93 1266.58,1089.41 1292.96,1082.79 1319.3,1076.07 1345.59,1069.26 1327.47,1081.0 M 1324.05,1067.79 1345.59,1069.26" fill="none" stroke="skyblue" stroke-width="3.072px" /><path d="M 1819.77,1269.21 1808.51,1292.86 1796.88,1316.43 1784.84,1339.92 1772.33,1363.31 1759.3,1386.59 1745.68,1409.76 1731.39,1432.78 1716.36,1455.65 1700.48,1478.34 1683.65,1500.83 1665.76,1523.09 1646.66,1545.09 1626.19,1566.78 1604.18,1588.14 1580.43,1609.09 1554.7,1629.6 1566.46,1611.49 M 1574.97,1622.17 1554.7,1629.6" fill="none" stroke="gold" stroke-width="3.072px" /><path d="M 3582.7,696.46 3608.78,709.45 3634.31,722.85 3659.32,736.64 3683.83,750.8 3707.86,765.3 3731.44,780.1 3754.61,795.19 3777.38,810.54 3799.78,826.13 3821.85,841.93 3843.62,857.93 3865.1,874.11 3886.34,890.44 3907.36,906.9 3928.18,923.49 3954.47,931.52 3980.68,939.71 4006.79,948.03 4032.83,956.47 4058.8,965.02 4084.7,973.66 4096.0,977.47 M 0.0,977.47 14.55,982.38 40.36,991.16 66.13,1000.0 91.88,1008.87 117.61,1017.77 143.33,1026.67 169.06,1035.57 193.29,1044.68 217.53,1053.75 241.81,1062.78 266.12,1071.76 290.49,1080.67 314.91,1089.5 339.4,1098.25 363.97,1106.88 388.62,1115.4 413.36,1123.8 438.19,1132.04 463.13,1140.14 488.18,1148.07 478.94,1130.06 469.79,1112.04 460.71,1094.0 476.01,1109.22 M 463.82,1115.36 460.71,1094.0" fill="none" stroke="skyblue" stroke-width="3.072px" /><path d="M 3604.49,1577.02 3613.48,1552.14 3621.79,1527.2 3629.5,1502.21 3636.69,1477.18 3643.43,1452.12 3649.79,1427.02 3655.81,1401.89 3661.53,1376.74 3666.99,1351.57 3672.22,1326.38 3677.26,1301.17 3682.12,1275.95 3686.83,1250.72 3690.3,1225.63 3693.68,1200.53 3696.99,1175.42 3700.25,1150.32 3703.45,1125.2 3706.62,1100.09 3709.75,1074.98 3712.87,1049.86 3715.98,1024.75 3719.09,999.63 3709.53,976.12 3699.93,952.61 3690.25,929.13 3680.47,905.66 3670.55,882.22 3660.48,858.82 3650.22,835.45 3639.74,812.13 3629.0,788.86 3617.97,765.64 3606.61,742.5 3594.87,719.44 3582.7,696.46 3598.32,711.37 M 3586.25,717.76 3582.7,696.46" fill="none" stroke="skyblue" stroke-width="3.072px" /><path d="M 2697.83,906.32 2719.04,891.66 2740.45,877.14 2762.08,862.78 2783.95,848.59 2806.08,834.59 2828.5,820.8 2851.22,807.23 2874.26,793.92 2897.66,780.87 2921.41,768.11 2945.55,755.66 2930.48,771.12 M 2924.22,758.98 2945.55,755.66" fill="none" stroke="blue" stroke-width="3.072px" /><path d="M 1365.8,1057.37 1347.99,1077.8 1330.08,1098.19 1312.04,1118.53 1293.84,1138.79 1275.44,1158.96 1256.8,1179.03 1237.88,1198.98 1218.63,1218.78 1228.01,1199.33 M 1237.8,1208.85 1218.63,1218.78" fill="none" stroke="blue" stroke-width="3.072px" /><path d="M 2519.17,130.61 2581.64,152.55 2628.34,175.51 2664.35,199.12 2692.87,223.19 2716.0,247.58 2735.14,272.2 2751.28,297.0 2765.08,321.94 2777.04,346.98 2787.54,372.1 2796.85,397.29 2805.18,422.54 2812.7,447.83 2819.53,473.17 2825.8,498.53 2831.57,523.92 2836.93,549.34 2861.2,568.34 2884.29,587.75 2906.32,607.55 2927.36,627.69 2947.51,648.13 2953.69,674.48 2959.58,700.86 2965.22,727.25 2970.64,753.67 2959.83,734.98 M 2973.21,732.23 2970.64,753.67" fill="none" stroke="gold" stroke-width="3.072px" /><path d="M 2277.0,628.23 2292.16,650.97 2306.65,673.86 2320.55,696.89 2333.92,720.03 2346.82,743.29 2359.3,766.64 2371.41,790.07 2383.2,813.57 2394.71,837.14 2405.97,860.75 2417.03,884.42 2402.18,868.76 M 2414.55,862.98 2417.03,884.42" fill="none" stroke="gold" stroke-width="3.072px" /><path d="M 2027.79,756.34 2000.04,759.12 1972.41,762.32 1944.9,765.94 1917.53,769.97 1890.3,774.4 1863.22,779.23 1836.31,784.43 1809.57,790.01 1783.01,795.95 1756.63,802.23 1730.43,808.84 1704.41,815.78 1678.59,823.02 1652.95,830.55 1627.49,838.37 1605.32,854.82 1583.45,871.46 1561.85,888.27 1540.47,905.21 1519.31,922.28 1498.32,939.46 1477.47,956.72 1456.74,974.05 1436.09,991.43 1415.49,1008.84 1394.92,1026.26 1374.35,1043.69 1353.75,1061.09 1328.48,1067.55 1303.17,1073.93 1277.83,1080.25 1252.45,1086.47 1227.02,1092.61 1201.54,1098.64 1176.01,1104.55 1150.42,1110.35 1124.77,1116.01 1099.06,1121.53 1073.28,1126.9 1047.43,1132.11 1021.52,1137.16 995.54,1142.03 969.49,1146.71 943.37,1151.21 917.17,1155.5 889.96,1153.42 862.78,1151.12 835.64,1148.6 808.55,1145.87 781.5,1142.94 754.49,1139.81 727.53,1136.48 700.63,1132.97 673.77,1129.27 646.96,1125.4 620.2,1121.36 593.5,1117.16 566.84,1112.8 540.24,1108.3 513.68,1103.66 487.17,1098.89 460.71,1094.0 482.09,1091.01 M 479.6,1104.44 460.71,1094.0" fill="none" stroke="skyblue" stroke-width="3.072px" /><path d="M 3718.74,986.94 3708.08,963.63 3697.36,940.34 3686.54,917.08 3675.59,893.84 3664.47,870.64 3653.17,847.49 3641.64,824.38 3629.86,801.34 3617.77,778.36 3605.34,755.47 3592.52,732.66 3579.27,709.95 3565.53,687.36 3536.12,685.89 3506.66,684.98 3477.16,684.65 3447.66,684.89 3418.19,685.72 3388.77,687.11 3359.44,689.07 3330.23,691.6 3301.15,694.68 3272.24,698.3 3243.52,702.46 3215.01,707.15 3186.72,712.34 3158.68,718.04 3131.25,721.81 3103.98,726.04 3076.9,730.71 3050.01,735.82 3023.34,741.36 2996.87,747.32 2970.64,753.67 2988.94,742.21 M 2992.15,755.48 2970.64,753.67" fill="none" stroke="skyblue" stroke-width="3.072px" /><path d="M 2576.35,1024.65 2556.84,1008.05 2537.29,991.47 2517.7,974.92 2498.03,958.41 2478.27,941.96 2458.37,925.59 2438.32,909.31 2418.1,893.14 2408.2,868.04 2398.12,842.98 2387.81,817.96 2377.24,792.99 2366.36,768.07 2355.14,743.23 2343.51,718.46 2331.44,693.77 2318.84,669.19 2305.65,644.71 2291.8,620.37 2263.58,609.16 2234.66,598.55 2205.02,588.57 2174.69,579.26 2143.67,570.66 2112.0,562.81 2079.69,555.72 2046.8,549.45 2013.39,544.01 1979.5,539.44 1945.22,535.76 1910.61,532.98 1931.58,527.81 M 1930.48,541.42 1910.61,532.98" fill="none" stroke="gold" stroke-width="3.072px" /><path d="M 1910.61,532.98 1944.9,536.24 1978.83,540.38 2012.32,545.4 2045.32,551.26 2077.75,557.93 2109.58,565.39 2140.77,573.6 2171.29,582.53 2201.12,592.14 2230.25,602.4 2258.67,613.27 2286.4,624.71 2300.23,649.0 2313.41,673.43 2326.01,697.96 2338.11,722.6 2349.75,747.32 2361.0,772.11 2371.91,796.97 2382.52,821.89 2392.88,846.86 2403.01,871.86 2412.96,896.91 2431.67,913.62 2450.21,930.43 2468.62,947.31 2486.91,964.25 2505.12,981.24 2523.26,998.26 2541.37,1015.3 2559.46,1032.34 2583.46,1042.72 2607.48,1053.08 2631.53,1063.39 2655.62,1073.65 2679.78,1083.85 2704.0,1093.96 2728.31,1103.97 2752.7,1113.88 2777.2,1123.66 2801.81,1133.3 2826.55,1142.79 2851.41,1152.11 2876.42,1161.24 2901.58,1170.18 2926.89,1178.91 2944.86,1199.47 2963.16,1219.9 2981.81,1240.18 3000.86,1260.3 3020.36,1280.22 3040.36,1299.94 3060.91,1319.42 3082.06,1338.63 3103.87,1357.56 3126.39,1376.16 3149.7,1394.41 3173.84,1412.27 3198.88,1429.69 3224.89,1446.64 3251.93,1463.08 3280.06,1478.94 3308.07,1492.11 3337.06,1504.65 3367.06,1516.54 3398.07,1527.71 3430.09,1538.12 3463.13,1547.72 3497.13,1556.46 3532.08,1564.28 3567.89,1571.15 3604.49,1577.02 3583.18,1580.52 M 3585.34,1567.04 3604.49,1577.02" fill="none" stroke="tomato" stroke-width="3.072px" /><path d="M 2576.35,1024.65 2556.84,1008.05 2537.29,991.47 2517.7,974.92 2498.03,958.41 2478.27,941.96 2458.37,925.59 2438.32,909.31 2418.1,893.14 2394.13,882.61 2370.0,872.27 2345.68,862.14 2321.17,852.22 2296.47,842.53 2271.55,833.09 2246.43,823.92 2221.07,815.03 2195.5,806.44 2169.69,798.16 2143.65,790.21 2117.37,782.61 2090.87,775.36 2064.13,768.49 2037.16,762.02 2009.28,764.69 1981.51,767.78 1953.85,771.29 1926.32,775.22 1898.93,779.54 1871.69,784.25 1844.6,789.34 1817.68,794.8 1790.93,800.61 1764.36,806.77 1737.96,813.27 1743.5,801.07 1741.25,822.54 M 1728.81,816.89 1743.5,801.07" fill="none" stroke="tomato" stroke-width="3.072px" /><path d="M 1275.71,1595.55 1236.22,1602.93 1195.71,1609.1 1154.33,1614.01 1112.25,1617.63 1069.68,1619.92 1026.83,1620.85 983.94,1620.42 941.24,1618.63 898.96,1615.5 857.3,1611.05 816.45,1605.33 776.57,1598.39 797.91,1595.18 M 795.57,1608.63 776.57,1598.39" fill="none" stroke="gold" stroke-width="3.072px" /><path d="M 2945.55,755.66 2944.09,781.91 2942.67,808.16 2941.29,834.41 2939.94,860.66 2938.62,886.91 2937.32,913.16 2936.04,939.42 2934.77,965.67 2933.52,991.92 2932.26,1018.17 2931.01,1044.43 2929.76,1070.68 2928.49,1096.93 2927.22,1123.19 2925.93,1149.44 2924.62,1175.69 2942.7,1196.46 2961.1,1217.11 2979.86,1237.6 2999.01,1257.93 3018.62,1278.07 3038.74,1298.0 3059.4,1317.69 3080.67,1337.11 3102.61,1356.24 3125.28,1375.05 3148.73,1393.5 3173.03,1411.55 3198.25,1429.17 3224.45,1446.3 3251.7,1462.91 3280.06,1478.94 3308.07,1492.11 3337.06,1504.65 3367.05,1516.54 3398.06,1527.71 3430.09,1538.12 3463.12,1547.72 3497.13,1556.45 3532.08,1564.28 3567.89,1571.15 3604.49,1577.02 3583.18,1580.52 M 3585.34,1567.04 3604.49,1577.02" fill="none" stroke="skyblue" stroke-width="3.072px" /><path d="M 1202.59,1235.27 1206.35,1261.09 1210.23,1286.92 1214.23,1312.73 1218.4,1338.53 1222.73,1364.33 1227.27,1390.1 1232.05,1415.87 1237.08,1441.62 1242.43,1467.34 1248.12,1493.05 1254.23,1518.72 1260.8,1544.37 1267.93,1569.98 1275.71,1595.55 1263.22,1577.95 M 1276.28,1573.97 1275.71,1595.55" fill="none" stroke="gold" stroke-width="3.072px" /><circle cx="1361.27968142" cy="928.527724089" r="4.096" /><text font-size="32.768px" text-anchor="start" x="1377.66368142" y="937.743724089">Arakebo</text><circle cx="2683.05294222" cy="873.537991111" r="4.096" /><text font-size="32.768px" text-anchor="start" x="2699.43694222" y="868.417991111">Ben Bay</text><circle cx="2415.64216889" cy="895.195704889" r="4.096" /><text font-size="32.768px" text-anchor="start" x="2432.02616889" y="904.411704889">Black Krags</text><circle cx="2288.00853333" cy="620.895573333" r="4.096" /><text font-size="32.768px" text-anchor="start" x="2304.39253333" y="630.111573333">Coaler Crater</text><circle cx="1961.57781333" cy="855.562467556" r="4.096" /><text font-size="32.768px" text-anchor="start" x="1977.96181333" y="864.778467556">Deadkerbal Pit</text><circle cx="118.355626667" cy="867.866737778" r="4.096" /><text font-size="32.768px" text-anchor="start" x="134.739626667" y="877.082737778">Donby Hole</text><circle cx="1451.26286222" cy="297.147278222" r="4.096" /><text font-size="32.768px" text-anchor="start" x="1467.64686222" y="306.363278222">Dull Spot</text><circle cx="1911.00136107" cy="520.423389867" r="4.096" /><text font-size="32.768px" text-anchor="start" x="1927.38536107" y="529.639389867">Dundard's Edge</text><circle cx="132.702435556" cy="1184.73910044" r="4.096" /><text font-size="32.768px" text-anchor="start" x="149.086435556" y="1193.95510044">Everkrest</text><circle cx="3610.92835556" cy="1036.62606791" r="4.096" /><text font-size="32.768px" text-anchor="start" x="3627.31235556" y="1045.84206791">Goldpool</text><circle cx="1355.8242304" cy="1063.46439111" r="4.096" /><text font-size="32.768px" text-anchor="start" x="1372.2082304" y="1072.68039111">Green Coast</text><circle cx="170.150547911" cy="1032.3908608" r="4.096" /><text font-size="32.768px" text-anchor="start" x="186.534547911" y="1041.6068608">Green Peaks</text><circle cx="2834.12354844" cy="538.753956978" r="4.096" /><text font-size="32.768px" text-anchor="start" x="2850.50754844" y="547.969956978">Guardian's Basin</text><circle cx="1817.6730112" cy="1281.59073849" r="4.096" /><text font-size="32.768px" text-anchor="start" x="1834.0570112" y="1290.80673849">Hanbert Cape</text><circle cx="2704.33497316" cy="946.175931733" r="4.096" /><text font-size="32.768px" text-anchor="start" x="2720.71897316" y="955.391931733">Jeb's Island Resort</text><circle cx="2564.32469333" cy="1025.10078862" r="4.096" /><text font-size="32.768px" text-anchor="start" x="2580.70869333" y="1034.31678862">Kerbal Space Centre</text><circle cx="1258.13304889" cy="1598.46729956" r="4.096" /><text font-size="32.768px" text-anchor="start" x="1274.51704889" y="1607.68329956">Kerbin's Bottom</text><circle cx="3738.681344" cy="1100.52709262" r="4.096" /><text font-size="32.768px" text-anchor="end" x="3722.297344" y="1109.74309262">Kerbin's Heart Science Centre</text><circle cx="2690.55089778" cy="895.679374222" r="4.096" /><text font-size="32.768px" text-anchor="start" x="2706.93489778" y="904.895374222">Kerman Lake</text><circle cx="1908.42311111" cy="903.329678222" r="4.096" /><text font-size="32.768px" text-anchor="start" x="1924.80711111" y="912.545678222">KKVLA</text><circle cx="2037.30716444" cy="765.673016889" r="4.096" /><text font-size="32.768px" text-anchor="start" x="2053.69116444" y="774.889016889">Lake Dermal</text><circle cx="3575.50565831" cy="685.9102208" r="4.096" /><text font-size="32.768px" text-anchor="start" x="3591.88965831" y="695.1262208">Lodnie Isles</text><circle cx="3716.11067733" cy="999.461569422" r="4.096" /><text font-size="32.768px" text-anchor="end" x="3699.72667733" y="1008.67756942">Lushlands</text><circle cx="2523.98478222" cy="791.743374222" r="4.096" /><text font-size="32.768px" text-anchor="start" x="2540.36878222" y="800.959374222">Mount Snowey</text><circle cx="1747.17261369" cy="789.044349156" r="4.096" /><text font-size="32.768px" text-anchor="start" x="1763.55661369" y="798.260349156">Old KSC</text><circle cx="2532.58296889" cy="118.641095111" r="4.096" /><text font-size="32.768px" text-anchor="start" x="2548.96696889" y="127.857095111">Polar Research Centre</text><circle cx="449.625884444" cy="1092.48084196" r="4.096" /><text font-size="32.768px" text-anchor="start" x="466.009884444" y="1101.69684196">Round Range</text><circle cx="2958.85710222" cy="754.560455111" r="4.096" /><text font-size="32.768px" text-anchor="start" x="2975.24110222" y="763.776455111">Sanctuary Mouth</text><circle cx="3333.63427556" cy="1060.7890432" r="4.096" /><text font-size="32.768px" text-anchor="start" x="3350.01827556" y="1070.0050432">Sandy Island</text><circle cx="225.206727111" cy="1412.18008178" r="4.096" /><text font-size="32.768px" text-anchor="start" x="241.590727111" y="1421.39608178">Sea's End</text><circle cx="3606.69412693" cy="1590.57170204" r="4.096" /><text font-size="32.768px" text-anchor="start" x="3623.07812693" y="1599.78770204">South Hope</text><circle cx="1210.91072" cy="1226.75871289" r="4.096" /><text font-size="32.768px" text-anchor="start" x="1227.29472" y="1235.97471289">South Point</text><circle cx="940.559928889" cy="1988.046848" r="4.096" /><text font-size="32.768px" text-anchor="start" x="956.943928889" y="1997.262848">South Pole Station</text><circle cx="1569.04789333" cy="1636.31024356" r="4.096" /><text font-size="32.768px" text-anchor="start" x="1585.43189333" y="1645.52624356">The Shelf</text><circle cx="770.351786667" cy="1588.27186631" r="4.096" /><text font-size="32.768px" text-anchor="start" x="786.735786667" y="1597.48786631">Valentina's Landing</text><path d="M 3709.7,993.12 3721.99,1005.41 M 3709.7,1005.41 3721.99,993.12" fill="none" stroke="black" stroke-width="1.536px" /><path d="M 2555.52,1023.79 2567.81,1036.08 M 2555.52,1036.08 2567.81,1023.79" fill="none" stroke="black" stroke-width="1.536px" /><path d="M 1250.22,1591.9 1262.51,1604.19 M 1250.22,1604.19 1262.51,1591.9" fill="none" stroke="black" stroke-width="1.536px" /><path d="M 3153.41,715.06 3165.7,727.35 M 3153.41,727.35 3165.7,715.06" fill="none" stroke="black" stroke-width="1.536px" /><text font-size="24.576px" text-anchor="start" x="3175.936" y="730.4192">PICTURESQUE-GULF-NDB</text><path d="M 2518.66,785.14 2530.94,797.42 M 2518.66,797.42 2530.94,785.14" fill="none" stroke="black" stroke-width="1.536px" /><path d="M 1740.27,782.59 1752.56,794.88 M 1740.27,794.88 1752.56,782.59" fill="none" stroke="black" stroke-width="1.536px" /><path d="M 3677.26,1244.05 3689.55,1256.33 M 3677.26,1256.33 3689.55,1244.05" fill="none" stroke="black" stroke-width="1.536px" /><text font-size="24.576px" text-anchor="start" x="3699.79164444" y="1259.40622222">TERMINAL-BAY-NDB</text><path d="M 1732.73,810.26 1745.02,822.55 M 1732.73,822.55 1745.02,810.26" fill="none" stroke="black" stroke-width="1.536px" /><text font-size="24.576px" text-anchor="start" x="1755.26229333" y="825.623893333">OLD-KSC-SOUTH-IAF</text><path d="M 2588.48,1038.09 2600.77,1050.38 M 2588.48,1050.38 2600.77,1038.09" fill="none" stroke="black" stroke-width="1.536px" /><text font-size="24.576px" text-anchor="start" x="2611.00999111" y="1061.63996444">ISLAND-NDB</text><path d="M 764.81,1581.67 777.1,1593.96 M 764.81,1593.96 777.1,1581.67" fill="none" stroke="black" stroke-width="1.536px" /><path d="M 2835.1,542.69 2847.39,554.98 M 2835.1,554.98 2847.39,542.69" fill="none" stroke="black" stroke-width="1.536px" /><path d="M 3556.11,682.8 3568.4,695.09 M 3556.11,695.09 3568.4,682.8" fill="none" stroke="black" stroke-width="1.536px" /><path d="M 970.17,778.57 982.46,790.86 M 970.17,790.86 982.46,778.57" fill="none" stroke="black" stroke-width="1.536px" /><text font-size="24.576px" text-anchor="start" x="992.702008889" y="793.931093333">GREAT-EZ-KAPE-NDB</text><path d="M 2409.9,889.56 2422.19,901.85 M 2409.9,901.85 2422.19,889.56" fill="none" stroke="black" stroke-width="1.536px" /><path d="M 989.32,123.47 1001.6,135.76 M 989.32,135.76 1001.6,123.47" fill="none" stroke="black" stroke-width="1.536px" /><text font-size="24.576px" text-anchor="start" x="1011.84398222" y="138.830506667">ZEBEDEE-NDB</text><path d="M 2282.07,615.66 2294.36,627.95 M 2282.07,627.95 2294.36,615.66" fill="none" stroke="black" stroke-width="1.536px" /><path d="M 1563.1,1632.75 1575.39,1645.04 M 1563.1,1645.04 1575.39,1632.75" fill="none" stroke="black" stroke-width="1.536px" /><path d="M 2828.11,532.71 2840.4,545.0 M 2828.11,545.0 2840.4,532.71" fill="none" stroke="black" stroke-width="1.536px" /><path d="M 1901.76,901.19 1914.05,913.48 M 1901.76,913.48 1914.05,901.19" fill="none" stroke="black" stroke-width="1.536px" /><path d="M 2921.82,1169.68 2934.11,1181.97 M 2921.82,1181.97 2934.11,1169.68" fill="none" stroke="black" stroke-width="1.536px" /><text font-size="24.576px" text-anchor="start" x="2944.35271111" y="1185.04106667">MIDISLAND-NDB</text><path d="M 2030.18,759.04 2042.47,771.33 M 2030.18,771.33 2042.47,759.04" fill="none" stroke="black" stroke-width="1.536px" /><path d="M 1962.01,850.22 1974.3,862.51 M 1962.01,862.51 1974.3,850.22" fill="none" stroke="black" stroke-width="1.536px" /><path d="M 3327.58,1054.42 3339.87,1066.7 M 3327.58,1066.7 3339.87,1054.42" fill="none" stroke="black" stroke-width="1.536px" /><path d="M 2984.55,979.98 2996.84,992.27 M 2984.55,992.27 2996.84,979.98" fill="none" stroke="black" stroke-width="1.536px" /><text font-size="24.576px" text-anchor="start" x="3007.08181333" y="995.337102222">BROWNROCK-NDB</text><path d="M 1204.57,1220.51 1216.86,1232.8 M 1204.57,1232.8 1216.86,1220.51" fill="none" stroke="black" stroke-width="1.536px" /><path d="M 442.55,1734.88 454.84,1747.17 M 442.55,1747.17 454.84,1734.88" fill="none" stroke="black" stroke-width="1.536px" /><text font-size="24.576px" text-anchor="start" x="465.078044444" y="1750.24355556">AURORA-EDGE-NDB</text><path d="M 1904.53,514.39 1916.82,526.67 M 1904.53,526.67 1916.82,514.39" fill="none" stroke="black" stroke-width="1.536px" /><path d="M 3924.1,914.8 3936.38,927.09 M 3924.1,927.09 3936.38,914.8" fill="none" stroke="black" stroke-width="1.536px" /><text font-size="24.576px" text-anchor="end" x="3913.85656889" y="930.157226667">SLEEPING-IDOL-NDB</text><path d="M 950.52,1981.16 962.8,1993.44 M 950.52,1993.44 962.8,1981.16" fill="none" stroke="black" stroke-width="1.536px" /><path d="M 909.88,1314.47 922.17,1326.76 M 909.88,1326.76 922.17,1314.47" fill="none" stroke="black" stroke-width="1.536px" /><text font-size="24.576px" text-anchor="start" x="932.408888889" y="1329.83466667">SANDY-ISTHMUS-NDB</text><path d="M 1349.73,1057.42 1362.02,1069.71 M 1349.73,1069.71 1362.02,1057.42" fill="none" stroke="black" stroke-width="1.536px" /><path d="M 2709.82,953.59 2722.1,965.88 M 2709.82,965.88 2722.1,953.59" fill="none" stroke="black" stroke-width="1.536px" /><path d="M 3731.7,1094.05 3743.99,1106.33 M 3731.7,1106.33 3743.99,1094.05" fill="none" stroke="black" stroke-width="1.536px" /><path d="M 2683.4,889.33 2695.69,901.62 M 2683.4,901.62 2695.69,889.33" fill="none" stroke="black" stroke-width="1.536px" /><path d="M 483.02,1138.81 495.3,1151.1 M 483.02,1151.1 495.3,1138.81" fill="none" stroke="black" stroke-width="1.536px" /><text font-size="24.576px" text-anchor="start" x="505.543111111" y="1154.16746667">RR-ATC</text><path d="M 1811.46,1275.42 1823.75,1287.71 M 1811.46,1287.71 1823.75,1275.42" fill="none" stroke="black" stroke-width="1.536px" /><path d="M 2944.34,639.89 2956.63,652.17 M 2944.34,652.17 2956.63,639.89" fill="none" stroke="black" stroke-width="1.536px" /><text font-size="24.576px" text-anchor="start" x="2966.86933333" y="655.246222222">SANCTUARY-PASS-NDB</text><path d="M 3276.34,1470.12 3288.63,1482.41 M 3276.34,1482.41 3288.63,1470.12" fill="none" stroke="black" stroke-width="1.536px" /><text font-size="24.576px" text-anchor="end" x="3266.10488889" y="1485.48266667">SCORPION-MOUNTAINS-NDB</text><path d="M 911.59,1152.57 923.88,1164.86 M 911.59,1164.86 923.88,1152.57" fill="none" stroke="black" stroke-width="1.536px" /><text font-size="24.576px" text-anchor="start" x="934.115555556" y="1167.92888889">TROPIC-LAKES-NDB</text><path d="M 163.96,1026.34 176.24,1038.63 M 163.96,1038.63 176.24,1026.34" fill="none" stroke="black" stroke-width="1.536px" /><path d="M 218.82,1406.27 231.11,1418.56 M 218.82,1418.56 231.11,1406.27" fill="none" stroke="black" stroke-width="1.536px" /><path d="M 1622.42,835.32 1634.71,847.6 M 1622.42,847.6 1634.71,835.32" fill="none" stroke="black" stroke-width="1.536px" /><text font-size="24.576px" text-anchor="start" x="1644.95132444" y="850.675484444">TWIN-PEAKS-NDB</text><path d="M 1746.03,767.32 1758.32,779.61 M 1746.03,779.61 1758.32,767.32" fill="none" stroke="black" stroke-width="1.536px" /><path d="M 2526.68,113.59 2538.97,125.88 M 2526.68,125.88 2538.97,113.59" fill="none" stroke="black" stroke-width="1.536px" /><path d="M 3932.58,1475.65 3944.86,1487.93 M 3932.58,1487.93 3944.86,1475.65" fill="none" stroke="black" stroke-width="1.536px" /><text font-size="24.576px" text-anchor="end" x="3922.33528889" y="1491.00657778">LONELY-MOUNTAIN-NDB</text><path d="M 142.18,1321.35 154.47,1333.64 M 142.18,1333.64 154.47,1321.35" fill="none" stroke="black" stroke-width="1.536px" /><text font-size="24.576px" text-anchor="start" x="164.712675556" y="1336.70798222">KRAKENS-BELLY-NDB</text><path d="M 1353.42,1006.28 1365.71,1018.57 M 1353.42,1018.57 1365.71,1006.28" fill="none" stroke="black" stroke-width="1.536px" /><text font-size="24.576px" text-anchor="start" x="1375.9488" y="1021.64138667">MISTY-CLIFFS-NDB</text><path d="M 350.25,1192.05 362.54,1204.34 M 350.25,1204.34 362.54,1192.05" fill="none" stroke="black" stroke-width="1.536px" /><text font-size="24.576px" text-anchor="start" x="372.779235556" y="1207.40977778">CENTRAL-LAKES-NDB</text><path d="M 3601.56,1584.2 3613.85,1596.49 M 3601.56,1596.49 3613.85,1584.2" fill="none" stroke="black" stroke-width="1.536px" /><path d="M 1356.19,920.92 1368.48,933.21 M 1356.19,933.21 1368.48,920.92" fill="none" stroke="black" stroke-width="1.536px" /></svg>