<?xml version="1.0" encoding="utf-8" ?>
<svg baseProfile="full" height="2048" version="1.1" width="4096" xmlns="http://www.w3.org/2000/svg" xmlns:ev="http://www.w3.org/2001/xml-events" xmlns:xlink="http://www.w3.org/1999/xlink"><defs /><line stroke="gold" stroke-width="3px" x1="184.815404603" x2="434.961027752" y1="1035.54395106" y2="1089.32775169" /><line stroke="gold" stroke-width="3px" x1="409.205812323" x2="434.961027752" y1="1090.18295821" y2="1089.32775169" /><line stroke="gold" stroke-width="3px" x1="411.833387542" x2="434.961027752" y1="1077.9622443" y2="1089.32775169" /><line stroke="blue" stroke-width="3px" x1="1734.8911594" x2="1368.10568469" y1="797.656310634" y2="1054.85242963" /><line stroke="blue" stroke-width="3px" x1="1384.98645789" x2="1368.10568469" y1="1035.38188788" y2="1054.85242963" /><line stroke="blue" stroke-width="3px" x1="1392.16309246" x2="1368.10568469" y1="1045.61643312" y2="1054.85242963" /><line stroke="blue" stroke-width="3px" x1="2300.39731335" x2="2678.16211777" y1="629.352412566" y2="887.22253499" /><line stroke="blue" stroke-width="3px" x1="2653.99046806" x2="2678.16211777" y1="878.289794608" y2="887.22253499" /><line stroke="blue" stroke-width="3px" x1="2661.03783409" x2="2678.16211777" y1="867.965811265" y2="887.22253499" /><line stroke="tomato" stroke-width="3px" x1="2523.24533753" x2="1917.76074247" y1="130.380287612" y2="891.590485721" /><line stroke="tomato" stroke-width="3px" x1="1928.4321312" x2="1917.76074247" y1="868.134485153" y2="891.590485721" /><line stroke="tomato" stroke-width="3px" x1="1938.21479161" x2="1917.76074247" y1="875.91584462" y2="891.590485721" /><line stroke="blue" stroke-width="3px" x1="3581.64322396" x2="3709.97311168" y1="699.597086324" y2="985.774703898" /><line stroke="blue" stroke-width="3px" x1="3694.04097496" x2="3709.97311168" y1="965.52058038" y2="985.774703898" /><line stroke="blue" stroke-width="3px" x1="3705.44669623" x2="3709.97311168" y1="960.405942337" y2="985.774703898" /><line stroke="gold" stroke-width="3px" x1="211.946237654" x2="-471.811154987" y1="1405.16870393" y2="1043.63744576" /><line stroke="gold" stroke-width="3px" x1="4307.94623765" x2="3624.18884501" y1="1405.16870393" y2="1043.63744576" /><line stroke="gold" stroke-width="3px" x1="3649.21106821" x2="3624.18884501" y1="1049.79787157" y2="1043.63744576" /><line stroke="gold" stroke-width="3px" x1="3643.36825334" x2="3624.18884501" y1="1060.84827945" y2="1043.63744576" /><line stroke="gold" stroke-width="3px" x1="1923.59877185" x2="2519.9855581" y1="512.280586815" y2="126.783898162" /><line stroke="gold" stroke-width="3px" x1="2502.38270807" x2="2519.9855581" y1="145.604157742" y2="126.783898162" /><line stroke="gold" stroke-width="3px" x1="2495.59703886" x2="2519.9855581" y1="135.106315421" y2="126.783898162" /><line stroke="tomato" stroke-width="3px" x1="2704.8507122" x2="4306.90691269" y1="900.208756901" y2="1407.6506991" /><line stroke="tomato" stroke-width="3px" x1="-1391.1492878" x2="210.906912687" y1="900.208756901" y2="1407.6506991" /><line stroke="tomato" stroke-width="3px" x1="185.186645865" x2="210.906912687" y1="1406.05998398" y2="1407.6506991" /><line stroke="tomato" stroke-width="3px" x1="188.961131431" x2="210.906912687" y1="1394.14347196" y2="1407.6506991" /><line stroke="skyblue" stroke-width="3px" x1="434.719314373" x2="-364.982752595" y1="1090.80926524" y2="1001.13314614" /><line stroke="skyblue" stroke-width="3px" x1="4530.71931437" x2="3731.0172474" y1="1090.80926524" y2="1001.13314614" /><line stroke="skyblue" stroke-width="3px" x1="3756.55802115" x2="3731.0172474" y1="997.708036463" y2="1001.13314614" /><line stroke="skyblue" stroke-width="3px" x1="3755.16504056" x2="3731.0172474" y1="1010.13017819" y2="1001.13314614" /><line stroke="skyblue" stroke-width="3px" x1="1369.56923621" x2="2023.56215863" y1="1057.45815975" y2="771.67924825" /><line stroke="skyblue" stroke-width="3px" x1="2003.15641201" x2="2023.56215863" y1="787.416719607" y2="771.67924825" /><line stroke="skyblue" stroke-width="3px" x1="1998.15121921" x2="2023.56215863" y1="775.962548095" y2="771.67924825" /><line stroke="gold" stroke-width="3px" x1="3733.18808779" x2="3580.99891452" y1="1086.56915093" y2="699.86816249" /><line stroke="gold" stroke-width="3px" x1="3595.97015058" x2="3580.99891452" y1="720.842541885" y2="699.86816249" /><line stroke="gold" stroke-width="3px" x1="3584.3385325" x2="3580.99891452" y1="725.420255393" y2="699.86816249" /><line stroke="skyblue" stroke-width="3px" x1="1370.55325532" x2="2944.1280773" y1="1060.62611259" y2="757.398733633" /><line stroke="skyblue" stroke-width="3px" x1="2920.76231849" x2="2944.1280773" y1="768.266291553" y2="757.398733633" /><line stroke="skyblue" stroke-width="3px" x1="2918.39708639" x2="2944.1280773" y1="755.992104121" y2="757.398733633" /><line stroke="skyblue" stroke-width="3px" x1="3619.94505068" x2="4532.3749607" y1="1583.54226252" y2="1099.51028148" /><line stroke="skyblue" stroke-width="3px" x1="-476.054949324" x2="436.374960702" y1="1583.54226252" y2="1099.51028148" /><line stroke="skyblue" stroke-width="3px" x1="417.219020932" x2="436.374960702" y1="1116.74723224" y2="1099.51028148" /><line stroke="skyblue" stroke-width="3px" x1="411.361154665" x2="436.374960702" y1="1105.70479579" y2="1099.51028148" /><line stroke="skyblue" stroke-width="3px" x1="2973.76500306" x2="3560.59775747" y1="752.900788717" y2="687.569887195" /><line stroke="skyblue" stroke-width="3px" x1="3536.44278374" x2="3560.59775747" y1="696.547623202" y2="687.569887195" /><line stroke="skyblue" stroke-width="3px" x1="3535.05972841" x2="3560.59775747" y1="684.124372502" y2="687.569887195" /><line stroke="blue" stroke-width="3px" x1="781.947514201" x2="1199.31499247" y1="1578.75666253" y2="1236.27391667" /><line stroke="blue" stroke-width="3px" x1="1183.95344815" x2="1199.31499247" y1="1256.96414277" y2="1236.27391667" /><line stroke="blue" stroke-width="3px" x1="1176.02411167" x2="1199.31499247" y1="1247.30103649" y2="1236.27391667" /><line stroke="gold" stroke-width="3px" x1="2426.93804987" x2="2553.02881235" y1="905.065004396" y2="1015.23148911" /><line stroke="gold" stroke-width="3px" x1="2530.09013591" x2="2553.02881235" y1="1003.48927368" y2="1015.23148911" /><line stroke="gold" stroke-width="3px" x1="2538.31455217" x2="2553.02881235" y1="994.076039526" y2="1015.23148911" /><line stroke="skyblue" stroke-width="3px" x1="3621.69410193" x2="4851.35181167" y1="1590.54431565" y2="1588.2992527" /><line stroke="skyblue" stroke-width="3px" x1="-474.305898067" x2="755.351811667" y1="1590.54431565" y2="1588.2992527" /><line stroke="skyblue" stroke-width="3px" x1="730.363264331" x2="755.351811667" y1="1594.59488627" y2="1588.2992527" /><line stroke="skyblue" stroke-width="3px" x1="730.340442338" x2="755.351811667" y1="1582.09490711" y2="1588.2992527" /><line stroke="tomato" stroke-width="3px" x1="2829.5705783" x2="2708.8879433" y1="553.046278794" y2="931.883609917" /><line stroke="tomato" stroke-width="3px" x1="2710.52109278" x2="2708.8879433" y1="906.166002665" y2="931.883609917" /><line stroke="tomato" stroke-width="3px" x1="2722.43136096" x2="2708.8879433" y1="909.96014445" y2="931.883609917" /><line stroke="blue" stroke-width="3px" x1="1196.1387458" x2="464.397858647" y1="1224.15318451" y2="1095.08637034" /><line stroke="blue" stroke-width="3px" x1="490.103452478" x2="464.397858647" y1="1093.27392839" y2="1095.08637034" /><line stroke="blue" stroke-width="3px" x1="487.932178827" x2="464.397858647" y1="1105.58390689" y2="1095.08637034" /><line stroke="limegreen" stroke-width="3px" x1="2689.22259817" x2="2827.9538925" y1="859.865560987" y2="552.426387102" /><line stroke="limegreen" stroke-width="3px" x1="2823.36797847" x2="2827.9538925" y1="577.784460619" y2="552.426387102" /><line stroke="limegreen" stroke-width="3px" x1="2811.9742867" x2="2827.9538925" y1="572.643080663" y2="552.426387102" /><line stroke="skyblue" stroke-width="3px" x1="2943.85819267" x2="2052.306074" y1="754.741320306" y2="765.492151694" /><line stroke="skyblue" stroke-width="3px" x1="2077.22889609" x2="2052.306074" y1="758.941164056" y2="765.492151694" /><line stroke="skyblue" stroke-width="3px" x1="2077.37961708" x2="2052.306074" y1="771.44025535" y2="765.492151694" /><line stroke="gold" stroke-width="3px" x1="928.875508999" x2="236.891147001" y1="1978.64076849" y2="1421.58616129" /><line stroke="gold" stroke-width="3px" x1="260.284379948" x2="236.891147001" y1="1432.3944522" y2="1421.58616129" /><line stroke="gold" stroke-width="3px" x1="252.445980353" x2="236.891147001" y1="1442.13146877" y2="1421.58616129" /><line stroke="gold" stroke-width="3px" x1="762.204450997" x2="457.773220114" y1="1575.67738651" y2="1105.07532176" /><line stroke="gold" stroke-width="3px" x1="476.599812815" x2="457.773220114" y1="1122.67139823" y2="1105.07532176" /><line stroke="gold" stroke-width="3px" x1="466.10441298" x2="457.773220114" y1="1129.46084462" y2="1105.07532176" /><line stroke="gold" stroke-width="3px" x1="104.881074038" x2="-343.844103371" y1="874.457369877" y2="1093.93646052" /><line stroke="gold" stroke-width="3px" x1="4200.88107404" x2="3752.15589663" y1="874.457369877" y2="1093.93646052" /><line stroke="gold" stroke-width="3px" x1="3771.86738763" x2="3752.15589663" y1="1077.33767676" y2="1093.93646052" /><line stroke="gold" stroke-width="3px" x1="3777.35958105" x2="3752.15589663" y1="1088.56647062" y2="1093.93646052" /><line stroke="skyblue" stroke-width="3px" x1="781.521265584" x2="1344.65475148" y1="1578.25973663" y2="1073.47652079" /><line stroke="skyblue" stroke-width="3px" x1="1330.21067399" x2="1344.65475148" y1="1094.81735314" y2="1073.47652079" /><line stroke="skyblue" stroke-width="3px" x1="1321.86723259" x2="1344.65475148" y1="1085.50945404" y2="1073.47652079" /><line stroke="gold" stroke-width="3px" x1="1893.43899301" x2="1376.26379952" y1="904.019754123" y2="927.837648188" /><line stroke="gold" stroke-width="3px" x1="1400.94979806" x2="1376.26379952" y1="920.444139145" y2="927.837648188" /><line stroke="gold" stroke-width="3px" x1="1401.52486132" x2="1376.26379952" y1="932.930904228" y2="927.837648188" /><line stroke="blue" stroke-width="3px" x1="2050.29676151" x2="2275.01893627" y1="758.171659141" y2="628.396931082" /><line stroke="blue" stroke-width="3px" x1="2256.49517355" x2="2275.01893627" y1="646.311526106" y2="628.396931082" /><line stroke="blue" stroke-width="3px" x1="2250.2440421" x2="2275.01893627" y1="635.486861885" y2="628.396931082" /><line stroke="gold" stroke-width="3px" x1="1273.02315963" x2="1554.15778259" y1="1600.27964669" y2="1634.49789642" /><line stroke="gold" stroke-width="3px" x1="1528.58578672" x2="1554.15778259" y1="1637.68153068" y2="1634.49789642" /><line stroke="gold" stroke-width="3px" x1="1530.096076" x2="1554.15778259" y1="1625.27310506" y2="1634.49789642" /><line stroke="gold" stroke-width="3px" x1="1458.99511687" x2="1739.44035905" y1="310.000769504" y2="776.190857874" /><line stroke="gold" stroke-width="3px" x1="1721.19764661" x2="1739.44035905" y1="757.990145172" y2="776.190857874" /><line stroke="gold" stroke-width="3px" x1="1731.90888934" x2="1739.44035905" y1="751.546599636" y2="776.190857874" /><line stroke="skyblue" stroke-width="3px" x1="3713.3805034" x2="3609.42430087" y1="1014.21101518" y2="1575.82225628" /><line stroke="skyblue" stroke-width="3px" x1="3607.82898835" x2="3609.42430087" y1="1550.10227421" y2="1575.82225628" /><line stroke="skyblue" stroke-width="3px" x1="3620.12019316" x2="3609.42430087" y1="1552.37741915" y2="1575.82225628" /><line stroke="gold" stroke-width="3px" x1="1956.77753247" x2="1822.47329207" y1="869.773635825" y2="1267.37957022" /><line stroke="gold" stroke-width="3px" x1="1824.55244007" x2="1822.47329207" y1="1241.69417274" y2="1267.37957022" /><line stroke="gold" stroke-width="3px" x1="1836.39508029" x2="1822.47329207" y1="1245.6944068" y2="1267.37957022" /><line stroke="gold" stroke-width="3px" x1="1555.95837992" x2="953.649442307" y1="1643.63585878" y2="1980.72123277" /><line stroke="gold" stroke-width="3px" x1="972.412958325" x2="953.649442307" y1="1963.05791013" y2="1980.72123277" /><line stroke="gold" stroke-width="3px" x1="978.517637682" x2="953.649442307" y1="1973.96583798" y2="1980.72123277" /><line stroke="limegreen" stroke-width="3px" x1="2577.39157837" x2="2691.26808812" y1="1017.7348864" y2="953.541833955" /><line stroke="limegreen" stroke-width="3px" x1="2672.55907233" x2="2691.26808812" y1="971.262873088" y2="953.541833955" /><line stroke="limegreen" stroke-width="3px" x1="2666.42082048" x2="2691.26808812" y1="960.373802227" y2="953.541833955" /><line stroke="skyblue" stroke-width="3px" x1="464.61820076" x2="1340.83191408" y1="1092.00078832" y2="1063.94444475" /><line stroke="skyblue" stroke-width="3px" x1="1316.04474257" x2="1340.83191408" y1="1070.9913326" y2="1063.94444475" /><line stroke="skyblue" stroke-width="3px" x1="1315.64469788" x2="1340.83191408" y1="1058.49773567" y2="1063.94444475" /><line stroke="gold" stroke-width="3px" x1="1809.0636067" x2="1577.65729784" y1="1293.87398538" y2="1624.02699667" /><line stroke="gold" stroke-width="3px" x1="1586.88828581" x2="1577.65729784" y1="1599.96766665" y2="1624.02699667" /><line stroke="gold" stroke-width="3px" x1="1597.12432488" x2="1577.65729784" y1="1607.1421704" y2="1624.02699667" /><line stroke="skyblue" stroke-width="3px" x1="3589.33986543" x2="4531.79167733" y1="691.708040522" y2="1086.68302223" /><line stroke="skyblue" stroke-width="3px" x1="-506.660134575" x2="435.79167733" y1="691.708040522" y2="1086.68302223" /><line stroke="skyblue" stroke-width="3px" x1="410.318907256" x2="435.79167733" y1="1082.78424233" y2="1086.68302223" /><line stroke="skyblue" stroke-width="3px" x1="415.150423691" x2="435.79167733" y1="1071.2557364" y2="1086.68302223" /><line stroke="skyblue" stroke-width="3px" x1="3606.1773046" x2="3576.02248065" y1="1575.5806082" y2="700.901314645" /><line stroke="skyblue" stroke-width="3px" x1="3583.13014031" x2="3576.02248065" y1="725.671128414" y2="700.901314645" /><line stroke="skyblue" stroke-width="3px" x1="3570.6375621" x2="3576.02248065" y1="726.101813694" y2="700.901314645" /><line stroke="blue" stroke-width="3px" x1="2703.82660534" x2="2945.58139466" y1="888.696853989" y2="761.542975344" /><line stroke="blue" stroke-width="3px" x1="2926.36459883" x2="2945.58139466" y1="778.712053882" y2="761.542975344" /><line stroke="blue" stroke-width="3px" x1="2920.54583197" x2="2945.58139466" y1="767.64896425" y2="761.542975344" /><line stroke="blue" stroke-width="3px" x1="1345.86787215" x2="1220.86707825" y1="1074.68361258" y2="1215.53949142" /><line stroke="blue" stroke-width="3px" x1="1232.78633305" x2="1220.86707825" y1="1192.69230636" y2="1215.53949142" /><line stroke="blue" stroke-width="3px" x1="1242.13568427" x2="1220.86707825" y1="1200.98927157" y2="1215.53949142" /><line stroke="gold" stroke-width="3px" x1="2540.93502188" x2="2950.50504923" y1="131.10075846" y2="742.100791762" /><line stroke="gold" stroke-width="3px" x1="2931.39343451" x2="2950.50504923" y1="724.814708263" y2="742.100791762" /><line stroke="gold" stroke-width="3px" x1="2941.7764873" x2="2950.50504923" y1="717.8546641" y2="742.100791762" /><line stroke="gold" stroke-width="3px" x1="3348.56260479" x2="3723.75301477" y1="1062.25362036" y2="1099.06251546" /><line stroke="gold" stroke-width="3px" x1="3698.26222556" x2="3723.75301477" y1="1102.84169071" y2="1099.06251546" /><line stroke="gold" stroke-width="3px" x1="3699.48270652" x2="3723.75301477" y1="1090.40141635" y2="1099.06251546" /><line stroke="gold" stroke-width="3px" x1="2294.33662142" x2="2409.3140808" y1="634.495400581" y2="881.595877641" /><line stroke="gold" stroke-width="3px" x1="2393.10067264" x2="2409.3140808" y1="861.566202264" y2="881.595877641" /><line stroke="gold" stroke-width="3px" x1="2404.43386201" x2="2409.3140808" y1="856.292795525" y2="881.595877641" /><line stroke="skyblue" stroke-width="3px" x1="2022.61518501" x2="464.317863876" y1="768.697209404" y2="1089.45664944" /><line stroke="skyblue" stroke-width="3px" x1="487.544416048" x2="464.317863876" y1="1078.29467048" y2="1089.45664944" /><line stroke="skyblue" stroke-width="3px" x1="490.064576478" x2="464.317863876" y1="1090.53798668" y2="1089.45664944" /><line stroke="skyblue" stroke-width="3px" x1="3701.83849801" x2="2973.12928155" y1="994.845846585" y2="759.176177949" /><line stroke="skyblue" stroke-width="3px" x1="2998.83946494" x2="2973.12928155" y1="760.922307959" y2="759.176177949" /><line stroke="skyblue" stroke-width="3px" x1="2994.99302924" x2="2973.12928155" y1="772.81579073" y2="759.176177949" /><line stroke="limegreen" stroke-width="3px" x1="435.223715137" x2="147.104604863" y1="1096.67339717" y2="1180.54654523" /><line stroke="limegreen" stroke-width="3px" x1="169.361322369" x2="147.104604863" y1="1167.55804932" y2="1180.54654523" /><line stroke="limegreen" stroke-width="3px" x1="172.855118382" x2="147.104604863" y1="1179.55985708" y2="1180.54654523" /><line stroke="gold" stroke-width="3px" x1="2552.45398237" x2="1922.87207203" y1="1015.93093469" y2="529.593243803" /><line stroke="gold" stroke-width="3px" x1="1946.47736278" x2="1922.87207203" y1="539.93020413" y2="529.593243803" /><line stroke="gold" stroke-width="3px" x1="1938.83581783" x2="1922.87207203" y1="549.822463266" y2="529.593243803" /><line stroke="tomato" stroke-width="3px" x1="2700.1174496" x2="2687.27046578" y1="931.781054345" y2="887.9328685" /><line stroke="tomato" stroke-width="3px" x1="2700.29753729" x2="2687.27046578" y1="910.167029331" y2="887.9328685" /><line stroke="tomato" stroke-width="3px" x1="2688.30180613" x2="2687.27046578" y1="913.681632297" y2="887.9328685" /><line stroke="tomato" stroke-width="3px" x1="1923.68644831" x2="3594.00903969" y1="528.42892305" y2="1582.56616886" /><line stroke="tomato" stroke-width="3px" x1="3569.53158878" x2="3594.00903969" y1="1574.50906657" y2="1582.56616886" /><line stroke="tomato" stroke-width="3px" x1="3576.20286644" x2="3594.00903969" y1="1563.93816054" y2="1582.56616886" /><line stroke="tomato" stroke-width="3px" x1="2549.9139349" x2="1761.58337212" y1="1020.93785199" y2="793.207285787" /><line stroke="tomato" stroke-width="3px" x1="1787.33585977" x2="1761.58337212" y1="794.141030825" y2="793.207285787" /><line stroke="tomato" stroke-width="3px" x1="1783.86674591" x2="1761.58337212" y1="806.149996186" y2="793.207285787" /><line stroke="gold" stroke-width="3px" x1="1243.13632441" x2="785.348511148" y1="1598.15384327" y2="1588.5853226" /><line stroke="gold" stroke-width="3px" x1="810.473658735" x2="785.348511148" y1="1582.85911454" y2="1588.5853226" /><line stroke="gold" stroke-width="3px" x1="810.212445163" x2="785.348511148" y1="1595.35638494" y2="1588.5853226" /><line stroke="gold" stroke-width="3px" x1="2509.08043366" x2="1976.48216189" y1="793.434644182" y2="853.871197596" /><line stroke="gold" stroke-width="3px" x1="2000.618047" x2="1976.48216189" y1="844.842269097" y2="853.871197596" /><line stroke="gold" stroke-width="3px" x1="2002.02743864" x2="1976.48216189" y1="857.262559562" y2="853.871197596" /><line stroke="tomato" stroke-width="3px" x1="1360.67373072" x2="1356.4301811" y1="943.515479883" y2="1048.47663532" /><line stroke="tomato" stroke-width="3px" x1="1351.19520068" x2="1356.4301811" y1="1023.24456287" y2="1048.47663532" /><line stroke="tomato" stroke-width="3px" x1="1363.68499718" x2="1356.4301811" y1="1023.74952178" y2="1048.47663532" /><line stroke="skyblue" stroke-width="3px" x1="2968.04504196" x2="3597.5061872" y1="766.41717318" y2="1578.71498398" /><line stroke="skyblue" stroke-width="3px" x1="3577.2526551" x2="3597.5061872" y1="1562.78209542" y2="1578.71498398" /><line stroke="skyblue" stroke-width="3px" x1="3587.13325349" x2="3597.5061872" y1="1555.12547897" y2="1578.71498398" /><line stroke="gold" stroke-width="3px" x1="1212.80114479" x2="1256.2426241" y1="1241.63911255" y2="1583.58689989" /><line stroke="gold" stroke-width="3px" x1="1246.89174959" x2="1256.2426241" y1="1559.57391078" y2="1583.58689989" /><line stroke="gold" stroke-width="3px" x1="1259.29208264" x2="1256.2426241" y1="1557.99855679" y2="1583.58689989" /><circle cx="1361.27968142" cy="928.527724089" r="4.096" /><text font-size="2em" text-anchor="start" x="1377.66368142" y="937.743724089">Arakebo</text><circle cx="2683.05294222" cy="873.537991111" r="4.096" /><text font-size="2em" text-anchor="start" x="2699.43694222" y="868.417991111">Ben Bay</text><circle cx="2415.64216889" cy="895.195704889" r="4.096" /><text font-size="2em" text-anchor="start" x="2432.02616889" y="904.411704889">Black Krags</text><circle cx="2288.00853333" cy="620.895573333" r="4.096" /><text font-size="2em" text-anchor="start" x="2304.39253333" y="630.111573333">Coaler Crater</text><circle cx="1961.57781333" cy="855.562467556" r="4.096" /><text font-size="2em" text-anchor="start" x="1977.96181333" y="864.778467556">Deadkerbal Pit</text><circle cx="118.355626667" cy="867.866737778" r="4.096" /><text font-size="2em" text-anchor="start" x="134.739626667" y="877.082737778">Donby Hole</text><circle cx="1451.26286222" cy="297.147278222" r="4.096" /><text font-size="2em" text-anchor="start" x="1467.64686222" y="306.363278222">Dull Spot</text><circle cx="1911.00136107" cy="520.423389867" r="4.096" /><text font-size="2em" text-anchor="start" x="1927.38536107" y="529.639389867">Dundard's Edge</text><circle cx="132.702435556" cy="1184.73910044" r="4.096" /><text font-size="2em" text-anchor="start" x="149.086435556" y="1193.95510044">Everkrest</text><circle cx="3610.92835556" cy="1036.62606791" r="4.096" /><text font-size="2em" text-anchor="start" x="3627.31235556" y="1045.84206791">Goldpool</text><circle cx="1355.8242304" cy="1063.46439111" r="4.096" /><text font-size="2em" text-anchor="start" x="1372.2082304" y="1072.68039111">Green Coast</text><circle cx="170.150547911" cy="1032.3908608" r="4.096" /><text font-size="2em" text-anchor="start" x="186.534547911" y="1041.6068608">Green Peaks</text><circle cx="2834.12354844" cy="538.753956978" r="4.096" /><text font-size="2em" text-anchor="start" x="2850.50754844" y="547.969956978">Guardian's Basin</text><circle cx="1817.6730112" cy="1281.59073849" r="4.096" /><text font-size="2em" text-anchor="start" x="1834.0570112" y="1290.80673849">Hanbert Cape</text><circle cx="2704.33497316" cy="946.175931733" r="4.096" /><text font-size="2em" text-anchor="start" x="2720.71897316" y="955.391931733">Jeb's Island Resort</text><circle cx="2564.32469333" cy="1025.10078862" r="4.096" /><text font-size="2em" text-anchor="start" x="2580.70869333" y="1034.31678862">Kerbal Space Centre</text><circle cx="1258.13304889" cy="1598.46729956" r="4.096" /><text font-size="2em" text-anchor="start" x="1274.51704889" y="1607.68329956">Kerbin's Bottom</text><circle cx="3738.681344" cy="1100.52709262" r="4.096" /><text font-size="2em" text-anchor="end" x="3722.297344" y="1109.74309262">Kerbin's Heart Science Centre</text><circle cx="2690.55089778" cy="895.679374222" r="4.096" /><text font-size="2em" text-anchor="start" x="2706.93489778" y="904.895374222">Kerman Lake</text><circle cx="1908.42311111" cy="903.329678222" r="4.096" /><text font-size="2em" text-anchor="start" x="1924.80711111" y="912.545678222">KKVLA</text><circle cx="2037.30716444" cy="765.673016889" r="4.096" /><text font-size="2em" text-anchor="start" x="2053.69116444" y="774.889016889">Lake Dermal</text><circle cx="3575.50565831" cy="685.9102208" r="4.096" /><text font-size="2em" text-anchor="start" x="3591.88965831" y="695.1262208">Lodnie Isles</text><circle cx="3716.11067733" cy="999.461569422" r="4.096" /><text font-size="2em" text-anchor="end" x="3699.72667733" y="1008.67756942">Lushlands</text><circle cx="2523.98478222" cy="791.743374222" r="4.096" /><text font-size="2em" text-anchor="start" x="2540.36878222" y="800.959374222">Mount Snowey</text><circle cx="1747.17261369" cy="789.044349156" r="4.096" /><text font-size="2em" text-anchor="start" x="1763.55661369" y="798.260349156">Old KSC</text><circle cx="2532.58296889" cy="118.641095111" r="4.096" /><text font-size="2em" text-anchor="start" x="2548.96696889" y="127.857095111">Polar Research Centre</text><circle cx="449.625884444" cy="1092.48084196" r="4.096" /><text font-size="2em" text-anchor="start" x="466.009884444" y="1101.69684196">Round Range</text><circle cx="2958.85710222" cy="754.560455111" r="4.096" /><text font-size="2em" text-anchor="start" x="2975.24110222" y="763.776455111">Sanctuary Mouth</text><circle cx="3333.63427556" cy="1060.7890432" r="4.096" /><text font-size="2em" text-anchor="start" x="3350.01827556" y="1070.0050432">Sandy Island</text><circle cx="225.206727111" cy="1412.18008178" r="4.096" /><text font-size="2em" text-anchor="start" x="241.590727111" y="1421.39608178">Sea's End</text><circle cx="3606.69412693" cy="1590.57170204" r="4.096" /><text font-size="2em" text-anchor="start" x="3623.07812693" y="1599.78770204">South Hope</text><circle cx="1210.91072" cy="1226.75871289" r="4.096" /><text font-size="2em" text-anchor="start" x="1227.29472" y="1235.97471289">South Point</text><circle cx="940.559928889" cy="1988.046848" r="4.096" /><text font-size="2em" text-anchor="start" x="956.943928889" y="1997.262848">South Pole Station</text><circle cx="1569.04789333" cy="1636.31024356" r="4.096" /><text font-size="2em" text-anchor="start" x="1585.43189333" y="1645.52624356">The Shelf</text><circle cx="770.351786667" cy="1588.27186631" r="4.096" /><text font-size="2em" text-anchor="start" x="786.735786667" y="1597.48786631">Valentina's Landing</text></svg>