<?xml version="1.0" encoding="utf-8" ?>
<svg baseProfile="full" height="2048" version="1.1" width="4096" xmlns="http://www.w3.org/2000/svg" xmlns:ev="http://www.w3.org/2001/xml-events" xmlns:xlink="http://www.w3.org/1999/xlink"><defs /><line stroke="gold" stroke-width="3px" x1="184.815404163" x2="434.961027766" y1="1035.54394981" y2="1089.32775163" /><line stroke="gold" stroke-width="3px" x1="409.205812333" x2="434.961027766" y1="1090.18295804" y2="1089.32775163" /><line stroke="gold" stroke-width="3px" x1="411.833387603" x2="434.961027766" y1="1077.96224414" y2="1089.32775163" /><line stroke="blue" stroke-width="3px" x1="1734.89116148" x2="1368.10568629" y1="797.656309648" y2="1054.85243404" /><line stroke="blue" stroke-width="3px" x1="1384.98645932" x2="1368.10568629" y1="1035.38189213" y2="1054.85243404" /><line stroke="blue" stroke-width="3px" x1="1392.16309398" x2="1368.10568629" y1="1045.61643731" y2="1054.85243404" /><line stroke="blue" stroke-width="3px" x1="2300.39731335" x2="2678.16211777" y1="629.352412566" y2="887.22253499" /><line stroke="blue" stroke-width="3px" x1="2653.99046806" x2="2678.16211777" y1="878.289794608" y2="887.22253499" /><line stroke="blue" stroke-width="3px" x1="2661.03783409" x2="2678.16211777" y1="867.965811265" y2="887.22253499" /><line stroke="tomato" stroke-width="3px" x1="2523.24533753" x2="1917.76074247" y1="130.380287612" y2="891.590485721" /><line stroke="tomato" stroke-width="3px" x1="1928.4321312" x2="1917.76074247" y1="868.134485153" y2="891.590485721" /><line stroke="tomato" stroke-width="3px" x1="1938.21479161" x2="1917.76074247" y1="875.91584462" y2="891.590485721" /><line stroke="blue" stroke-width="3px" x1="3581.64322505" x2="3709.9731118" y1="699.597082065" y2="985.774703847" /><line stroke="blue" stroke-width="3px" x1="3694.04097524" x2="3709.9731118" y1="965.520580196" y2="985.774703847" /><line stroke="blue" stroke-width="3px" x1="3705.44669656" x2="3709.9731118" y1="960.405942248" y2="985.774703847" /><line stroke="gold" stroke-width="3px" x1="211.946237654" x2="-471.811154987" y1="1405.16870393" y2="1043.63744576" /><line stroke="gold" stroke-width="3px" x1="4307.94623765" x2="3624.18884501" y1="1405.16870393" y2="1043.63744576" /><line stroke="gold" stroke-width="3px" x1="3649.21106821" x2="3624.18884501" y1="1049.79787157" y2="1043.63744576" /><line stroke="gold" stroke-width="3px" x1="3643.36825334" x2="3624.18884501" y1="1060.84827945" y2="1043.63744576" /><line stroke="gold" stroke-width="3px" x1="1923.59876795" x2="2519.98555811" y1="512.280589835" y2="126.78389817" /><line stroke="gold" stroke-width="3px" x1="2502.38270808" x2="2519.98555811" y1="145.604157759" y2="126.78389817" /><line stroke="gold" stroke-width="3px" x1="2495.59703887" x2="2519.98555811" y1="135.106315443" y2="126.78389817" /><line stroke="tomato" stroke-width="3px" x1="2704.8507122" x2="4306.90691269" y1="900.208756901" y2="1407.6506991" /><line stroke="tomato" stroke-width="3px" x1="-1391.1492878" x2="210.906912687" y1="900.208756901" y2="1407.6506991" /><line stroke="tomato" stroke-width="3px" x1="185.186645865" x2="210.906912687" y1="1406.05998398" y2="1407.6506991" /><line stroke="tomato" stroke-width="3px" x1="188.961131431" x2="210.906912687" y1="1394.14347196" y2="1407.6506991" /><line stroke="skyblue" stroke-width="3px" x1="434.719314373" x2="-364.982752595" y1="1090.80926524" y2="1001.13314614" /><line stroke="skyblue" stroke-width="3px" x1="4530.71931437" x2="3731.0172474" y1="1090.80926524" y2="1001.13314614" /><line stroke="skyblue" stroke-width="3px" x1="3756.55802115" x2="3731.0172474" y1="997.708036463" y2="1001.13314614" /><line stroke="skyblue" stroke-width="3px" x1="3755.16504056" x2="3731.0172474" y1="1010.13017819" y2="1001.13314614" /><line stroke="skyblue" stroke-width="3px" x1="1369.56923786" x2="2023.56215867" y1="1057.45816418" y2="771.679248339" /><line stroke="skyblue" stroke-width="3px" x1="2003.15641215" x2="2023.56215867" y1="787.416719828" y2="771.679248339" /><line stroke="skyblue" stroke-width="3px" x1="1998.15121927" x2="2023.56215867" y1="775.962548348" y2="771.679248339" /><line stroke="gold" stroke-width="3px" x1="3733.18808787" x2="3580.99891564" y1="1086.5691509" y2="699.868158213" /><line stroke="gold" stroke-width="3px" x1="3595.97015157" x2="3580.99891564" y1="720.842537699" y2="699.868158213" /><line stroke="gold" stroke-width="3px" x1="3584.33853346" x2="3580.99891564" y1="725.420251137" y2="699.868158213" /><line stroke="skyblue" stroke-width="3px" x1="1370.55325699" x2="2944.12807731" y1="1060.62611707" y2="757.398733676" /><line stroke="skyblue" stroke-width="3px" x1="2920.76231853" x2="2944.12807731" y1="768.266291664" y2="757.398733676" /><line stroke="skyblue" stroke-width="3px" x1="2918.39708639" x2="2944.12807731" y1="755.992104239" y2="757.398733676" /><line stroke="skyblue" stroke-width="3px" x1="3619.94505113" x2="4532.37496068" y1="1583.54225899" y2="1099.51028144" /><line stroke="skyblue" stroke-width="3px" x1="-476.054948874" x2="436.374960683" y1="1583.54225899" y2="1099.51028144" /><line stroke="skyblue" stroke-width="3px" x1="417.219020865" x2="436.374960683" y1="1116.74723215" y2="1099.51028144" /><line stroke="skyblue" stroke-width="3px" x1="411.361154628" x2="436.374960683" y1="1105.70479568" y2="1099.51028144" /><line stroke="skyblue" stroke-width="3px" x1="2973.76500305" x2="3560.59775868" y1="752.900788617" y2="687.569882985" /><line stroke="skyblue" stroke-width="3px" x1="3536.44278501" x2="3560.59775868" y1="696.547619154" y2="687.569882985" /><line stroke="skyblue" stroke-width="3px" x1="3535.0597296" x2="3560.59775868" y1="684.124368463" y2="687.569882985" /><line stroke="blue" stroke-width="3px" x1="781.947514204" x2="1199.31499246" y1="1578.75666231" y2="1236.27391666" /><line stroke="blue" stroke-width="3px" x1="1183.95344814" x2="1199.31499246" y1="1256.96414276" y2="1236.27391666" /><line stroke="blue" stroke-width="3px" x1="1176.02411166" x2="1199.31499246" y1="1247.30103648" y2="1236.27391666" /><line stroke="gold" stroke-width="3px" x1="2426.93805006" x2="2553.02881216" y1="905.065004181" y2="1015.23148432" /><line stroke="gold" stroke-width="3px" x1="2530.0901355" x2="2553.02881216" y1="1003.48926933" y2="1015.23148432" /><line stroke="gold" stroke-width="3px" x1="2538.31455157" x2="2553.02881216" y1="994.076035016" y2="1015.23148432" /><line stroke="skyblue" stroke-width="3px" x1="3621.69410236" x2="4851.35181167" y1="1590.54431213" y2="1588.29925243" /><line stroke="skyblue" stroke-width="3px" x1="-474.305897636" x2="755.351811667" y1="1590.54431213" y2="1588.29925243" /><line stroke="skyblue" stroke-width="3px" x1="730.363264315" x2="755.351811667" y1="1594.59488594" y2="1588.29925243" /><line stroke="skyblue" stroke-width="3px" x1="730.340442354" x2="755.351811667" y1="1582.09490677" y2="1588.29925243" /><line stroke="tomato" stroke-width="3px" x1="2829.57057672" x2="2708.88794596" y1="553.046277964" y2="931.883608337" /><line stroke="tomato" stroke-width="3px" x1="2710.52109519" x2="2708.88794596" y1="906.166001069" y2="931.883608337" /><line stroke="tomato" stroke-width="3px" x1="2722.43136341" x2="2708.88794596" y1="909.960142739" y2="931.883608337" /><line stroke="blue" stroke-width="3px" x1="1196.1387458" x2="464.397858647" y1="1224.15318451" y2="1095.08637034" /><line stroke="blue" stroke-width="3px" x1="490.103452478" x2="464.397858647" y1="1093.27392839" y2="1095.08637034" /><line stroke="blue" stroke-width="3px" x1="487.932178827" x2="464.397858647" y1="1105.58390689" y2="1095.08637034" /><line stroke="limegreen" stroke-width="3px" x1="2689.2225981" x2="2827.95389085" y1="859.865560955" y2="552.426386261" /><line stroke="limegreen" stroke-width="3px" x1="2823.36797695" x2="2827.95389085" y1="577.784459802" y2="552.426386261" /><line stroke="limegreen" stroke-width="3px" x1="2811.97428516" x2="2827.95389085" y1="572.643079906" y2="552.426386261" /><line stroke="skyblue" stroke-width="3px" x1="2943.85819267" x2="2052.306074" y1="754.741320306" y2="765.492151694" /><line stroke="skyblue" stroke-width="3px" x1="2077.22889609" x2="2052.306074" y1="758.941164056" y2="765.492151694" /><line stroke="skyblue" stroke-width="3px" x1="2077.37961708" x2="2052.306074" y1="771.44025535" y2="765.492151694" /><line stroke="gold" stroke-width="3px" x1="928.875508999" x2="236.891147001" y1="1978.64076849" y2="1421.58616129" /><line stroke="gold" stroke-width="3px" x1="260.284379948" x2="236.891147001" y1="1432.3944522" y2="1421.58616129" /><line stroke="gold" stroke-width="3px" x1="252.445980353" x2="236.891147001" y1="1442.13146877" y2="1421.58616129" /><line stroke="gold" stroke-width="3px" x1="762.204450994" x2="457.773220117" y1="1575.67738628" y2="1105.07532176" /><line stroke="gold" stroke-width="3px" x1="476.599812821" x2="457.773220117" y1="1122.67139823" y2="1105.07532176" /><line stroke="gold" stroke-width="3px" x1="466.104412988" x2="457.773220117" y1="1129.46084462" y2="1105.07532176" /><line stroke="gold" stroke-width="3px" x1="104.881074038" x2="-343.844103371" y1="874.457369877" y2="1093.93646052" /><line stroke="gold" stroke-width="3px" x1="4200.88107404" x2="3752.15589663" y1="874.457369877" y2="1093.93646052" /><line stroke="gold" stroke-width="3px" x1="3771.86738763" x2="3752.15589663" y1="1077.33767676" y2="1093.93646052" /><line stroke="gold" stroke-width="3px" x1="3777.35958105" x2="3752.15589663" y1="1088.56647062" y2="1093.93646052" /><line stroke="skyblue" stroke-width="3px" x1="781.521265644" x2="1344.65475311" y1="1578.25973647" y2="1073.47652525" /><line stroke="skyblue" stroke-width="3px" x1="1330.21067548" x2="1344.65475311" y1="1094.81735751" y2="1073.47652525" /><line stroke="skyblue" stroke-width="3px" x1="1321.86723414" x2="1344.65475311" y1="1085.50945836" y2="1073.47652525" /><line stroke="gold" stroke-width="3px" x1="1893.43899302" x2="1376.26380229" y1="904.01975423" y2="927.837651878" /><line stroke="gold" stroke-width="3px" x1="1400.94980078" x2="1376.26380229" y1="920.444142658" y2="927.837651878" /><line stroke="gold" stroke-width="3px" x1="1401.52486412" x2="1376.26380229" y1="932.930907737" y2="927.837651878" /><line stroke="blue" stroke-width="3px" x1="2050.29676151" x2="2275.01893627" y1="758.171659141" y2="628.396931082" /><line stroke="blue" stroke-width="3px" x1="2256.49517355" x2="2275.01893627" y1="646.311526106" y2="628.396931082" /><line stroke="blue" stroke-width="3px" x1="2250.2440421" x2="2275.01893627" y1="635.486861885" y2="628.396931082" /><line stroke="gold" stroke-width="3px" x1="1273.02315963" x2="1554.15778259" y1="1600.27964669" y2="1634.49789642" /><line stroke="gold" stroke-width="3px" x1="1528.58578672" x2="1554.15778259" y1="1637.68153068" y2="1634.49789642" /><line stroke="gold" stroke-width="3px" x1="1530.096076" x2="1554.15778259" y1="1625.27310506" y2="1634.49789642" /><line stroke="gold" stroke-width="3px" x1="1458.99511692" x2="1739.440361" y1="310.000769473" y2="776.190856805" /><line stroke="gold" stroke-width="3px" x1="1721.19764848" x2="1739.440361" y1="757.990144176" y2="776.190856805" /><line stroke="gold" stroke-width="3px" x1="1731.90889119" x2="1739.440361" y1="751.546598597" y2="776.190856805" /><line stroke="skyblue" stroke-width="3px" x1="3713.38050339" x2="3609.4243013" y1="1014.21101518" y2="1575.82225272" /><line stroke="skyblue" stroke-width="3px" x1="3607.8289888" x2="3609.4243013" y1="1550.10227064" y2="1575.82225272" /><line stroke="skyblue" stroke-width="3px" x1="3620.1201936" x2="3609.4243013" y1="1552.37741559" y2="1575.82225272" /><line stroke="gold" stroke-width="3px" x1="1956.77753262" x2="1822.4732964" y1="869.773635879" y2="1267.37957251" /><line stroke="gold" stroke-width="3px" x1="1824.55244412" x2="1822.4732964" y1="1241.69417501" y2="1267.37957251" /><line stroke="gold" stroke-width="3px" x1="1836.39508438" x2="1822.4732964" y1="1245.69440894" y2="1267.37957251" /><line stroke="gold" stroke-width="3px" x1="1555.95837992" x2="953.649442307" y1="1643.63585878" y2="1980.72123277" /><line stroke="gold" stroke-width="3px" x1="972.412958325" x2="953.649442307" y1="1963.05791013" y2="1980.72123277" /><line stroke="gold" stroke-width="3px" x1="978.517637682" x2="953.649442307" y1="1973.96583798" y2="1980.72123277" /><line stroke="limegreen" stroke-width="3px" x1="2577.39157857" x2="2691.26809072" y1="1017.73488175" y2="953.54183206" /><line stroke="limegreen" stroke-width="3px" x1="2672.55907444" x2="2691.26809072" y1="971.262870682" y2="953.54183206" /><line stroke="limegreen" stroke-width="3px" x1="2666.42082289" x2="2691.26809072" y1="960.373799653" y2="953.54183206" /><line stroke="skyblue" stroke-width="3px" x1="464.618200763" x2="1340.83191577" y1="1092.0007884" y2="1063.94444919" /><line stroke="skyblue" stroke-width="3px" x1="1316.04474422" x2="1340.83191577" y1="1070.99133692" y2="1063.94444919" /><line stroke="skyblue" stroke-width="3px" x1="1315.64469959" x2="1340.83191577" y1="1058.49773999" y2="1063.94444919" /><line stroke="gold" stroke-width="3px" x1="1809.06361104" x2="1577.65729798" y1="1293.87398762" y2="1624.02699677" /><line stroke="gold" stroke-width="3px" x1="1586.88828623" x2="1577.65729798" y1="1599.96766686" y2="1624.02699677" /><line stroke="gold" stroke-width="3px" x1="1597.12432522" x2="1577.65729798" y1="1607.14217073" y2="1624.02699677" /><line stroke="skyblue" stroke-width="3px" x1="3589.3398666" x2="4531.79167735" y1="691.70803627" y2="1086.68302218" /><line stroke="skyblue" stroke-width="3px" x1="-506.660133397" x2="435.791677355" y1="691.70803627" y2="1086.68302218" /><line stroke="skyblue" stroke-width="3px" x1="410.318907297" x2="435.791677355" y1="1082.78424216" y2="1086.68302218" /><line stroke="skyblue" stroke-width="3px" x1="415.150423781" x2="435.791677355" y1="1071.25573625" y2="1086.68302218" /><line stroke="skyblue" stroke-width="3px" x1="3606.17730504" x2="3576.02248184" y1="1575.58060463" y2="700.901310336" /><line stroke="skyblue" stroke-width="3px" x1="3583.13014148" x2="3576.02248184" y1="725.671124111" y2="700.901310336" /><line stroke="skyblue" stroke-width="3px" x1="3570.63756327" x2="3576.02248184" y1="726.10180938" y2="700.901310336" /><line stroke="blue" stroke-width="3px" x1="2703.82660534" x2="2945.58139466" y1="888.696853989" y2="761.542975344" /><line stroke="blue" stroke-width="3px" x1="2926.36459883" x2="2945.58139466" y1="778.712053882" y2="761.542975344" /><line stroke="blue" stroke-width="3px" x1="2920.54583197" x2="2945.58139466" y1="767.64896425" y2="761.542975344" /><line stroke="blue" stroke-width="3px" x1="1345.86787362" x2="1220.86707847" y1="1074.68361691" y2="1215.53949161" /><line stroke="blue" stroke-width="3px" x1="1232.78633371" x2="1220.86707847" y1="1192.69230679" y2="1215.53949161" /><line stroke="blue" stroke-width="3px" x1="1242.13568478" x2="1220.86707847" y1="1200.98927218" y2="1215.53949161" /><line stroke="gold" stroke-width="3px" x1="2540.93502188" x2="2950.50504923" y1="131.10075846" y2="742.100791762" /><line stroke="gold" stroke-width="3px" x1="2931.39343451" x2="2950.50504923" y1="724.814708263" y2="742.100791762" /><line stroke="gold" stroke-width="3px" x1="2941.7764873" x2="2950.50504923" y1="717.8546641" y2="742.100791762" /><line stroke="gold" stroke-width="3px" x1="3348.56260479" x2="3723.75301477" y1="1062.25362036" y2="1099.06251546" /><line stroke="gold" stroke-width="3px" x1="3698.26222556" x2="3723.75301477" y1="1102.84169071" y2="1099.06251546" /><line stroke="gold" stroke-width="3px" x1="3699.48270652" x2="3723.75301477" y1="1090.40141635" y2="1099.06251546" /><line stroke="gold" stroke-width="3px" x1="2294.33662142" x2="2409.3140808" y1="634.495400581" y2="881.595877641" /><line stroke="gold" stroke-width="3px" x1="2393.10067264" x2="2409.3140808" y1="861.566202264" y2="881.595877641" /><line stroke="gold" stroke-width="3px" x1="2404.43386201" x2="2409.3140808" y1="856.292795525" y2="881.595877641" /><line stroke="skyblue" stroke-width="3px" x1="2022.61518501" x2="464.317863876" y1="768.697209404" y2="1089.45664944" /><line stroke="skyblue" stroke-width="3px" x1="487.544416048" x2="464.317863876" y1="1078.29467048" y2="1089.45664944" /><line stroke="skyblue" stroke-width="3px" x1="490.064576478" x2="464.317863876" y1="1090.53798668" y2="1089.45664944" /><line stroke="skyblue" stroke-width="3px" x1="3701.83849801" x2="2973.12928155" y1="994.845846585" y2="759.176177949" /><line stroke="skyblue" stroke-width="3px" x1="2998.83946494" x2="2973.12928155" y1="760.922307959" y2="759.176177949" /><line stroke="skyblue" stroke-width="3px" x1="2994.99302924" x2="2973.12928155" y1="772.81579073" y2="759.176177949" /><line stroke="limegreen" stroke-width="3px" x1="435.223715137" x2="147.104604863" y1="1096.67339717" y2="1180.54654523" /><line stroke="limegreen" stroke-width="3px" x1="169.361322369" x2="147.104604863" y1="1167.55804932" y2="1180.54654523" /><line stroke="limegreen" stroke-width="3px" x1="172.855118382" x2="147.104604863" y1="1179.55985708" y2="1180.54654523" /><line stroke="gold" stroke-width="3px" x1="2552.45398227" x2="1922.87206823" y1="1015.9309298" y2="529.593246705" /><line stroke="gold" stroke-width="3px" x1="1946.47735909" x2="1922.87206823" y1="539.930206782" y2="529.593246705" /><line stroke="gold" stroke-width="3px" x1="1938.83581425" x2="1922.87206823" y1="549.822465999" y2="529.593246705" /><line stroke="tomato" stroke-width="3px" x1="2700.1174518" x2="2687.27046637" y1="931.781052982" y2="887.932868326" /><line stroke="tomato" stroke-width="3px" x1="2700.2975388" x2="2687.27046637" y1="910.16702862" y2="887.932868326" /><line stroke="tomato" stroke-width="3px" x1="2688.30180779" x2="2687.27046637" y1="913.68163208" y2="887.932868326" /><line stroke="tomato" stroke-width="3px" x1="1923.68644445" x2="3594.00904009" y1="528.428926028" y2="1582.56616534" /><line stroke="tomato" stroke-width="3px" x1="3569.53158915" x2="3594.00904009" y1="1574.50906315" y2="1582.56616534" /><line stroke="tomato" stroke-width="3px" x1="3576.20286676" x2="3594.00904009" y1="1563.93815709" y2="1582.56616534" /><line stroke="tomato" stroke-width="3px" x1="2549.91393489" x2="1761.58337414" y1="1020.93784704" y2="793.207284633" /><line stroke="tomato" stroke-width="3px" x1="1787.33586179" x2="1761.58337414" y1="794.141029575" y2="793.207284633" /><line stroke="tomato" stroke-width="3px" x1="1783.86674798" x2="1761.58337414" y1="806.149994948" y2="793.207284633" /><line stroke="gold" stroke-width="3px" x1="1243.13632441" x2="785.348511147" y1="1598.15384326" y2="1588.58532237" /><line stroke="gold" stroke-width="3px" x1="810.473658738" x2="785.348511147" y1="1582.85911433" y2="1588.58532237" /><line stroke="gold" stroke-width="3px" x1="810.212445159" x2="785.348511147" y1="1595.35638473" y2="1588.58532237" /><line stroke="gold" stroke-width="3px" x1="2509.08043366" x2="1976.48216189" y1="793.434644182" y2="853.871197596" /><line stroke="gold" stroke-width="3px" x1="2000.618047" x2="1976.48216189" y1="844.842269097" y2="853.871197596" /><line stroke="gold" stroke-width="3px" x1="2002.02743864" x2="1976.48216189" y1="857.262559562" y2="853.871197596" /><line stroke="tomato" stroke-width="3px" x1="1360.67373338" x2="1356.4301829" y1="943.515483676" y2="1048.47663984" /><line stroke="tomato" stroke-width="3px" x1="1351.19520268" x2="1356.4301829" y1="1023.24456735" y2="1048.47663984" /><line stroke="tomato" stroke-width="3px" x1="1363.68499917" x2="1356.4301829" y1="1023.74952637" y2="1048.47663984" /><line stroke="skyblue" stroke-width="3px" x1="2968.04504199" x2="3597.5061876" y1="766.417173159" y2="1578.71498043" /><line stroke="skyblue" stroke-width="3px" x1="3577.25265547" x2="3597.5061876" y1="1562.78209192" y2="1578.71498043" /><line stroke="skyblue" stroke-width="3px" x1="3587.13325384" x2="3597.5061876" y1="1555.12547545" y2="1578.71498043" /><line stroke="gold" stroke-width="3px" x1="1212.80114479" x2="1256.2426241" y1="1241.63911255" y2="1583.58689989" /><line stroke="gold" stroke-width="3px" x1="1246.89174959" x2="1256.2426241" y1="1559.57391078" y2="1583.58689989" /><line stroke="gold" stroke-width="3px" x1="1259.29208264" x2="1256.2426241" y1="1557.99855679" y2="1583.58689989" /><circle cx="1361.27968419" cy="928.527727886" r="4.096" /><text font-size="2em" text-anchor="start" x="1377.66368419" y="937.743727886">Arakebo</text><circle cx="2683.05294222" cy="873.537991111" r="4.096" /><text font-size="2em" text-anchor="start" x="2699.43694222" y="868.417991111">Ben Bay</text><circle cx="2415.64216889" cy="895.195704889" r="4.096" /><text font-size="2em" text-anchor="start" x="2432.02616889" y="904.411704889">Black Krags</text><circle cx="2288.00853333" cy="620.895573333" r="4.096" /><text font-size="2em" text-anchor="start" x="2304.39253333" y="630.111573333">Coaler Crater</text><circle cx="1961.57781333" cy="855.562467556" r="4.096" /><text font-size="2em" text-anchor="start" x="1977.96181333" y="864.778467556">Deadkerbal Pit</text><circle cx="118.355626667" cy="867.866737778" r="4.096" /><text font-size="2em" text-anchor="start" x="134.739626667" y="877.082737778">Donby Hole</text><circle cx="1451.26286222" cy="297.147278222" r="4.096" /><text font-size="2em" text-anchor="start" x="1467.64686222" y="306.363278222">Dull Spot</text><circle cx="1911.00135717" cy="520.423392894" r="4.096" /><text font-size="2em" text-anchor="start" x="1927.38535717" y="529.639392894">Dundard's Edge</text><circle cx="132.702435556" cy="1184.73910044" r="4.096" /><text font-size="2em" text-anchor="start" x="149.086435556" y="1193.95510044">Everkrest</text><circle cx="3610.92835556" cy="1036.62606791" r="4.096" /><text font-size="2em" text-anchor="start" x="3627.31235556" y="1045.84206791">Goldpool</text><circle cx="1355.82423208" cy="1063.46439563" r="4.096" /><text font-size="2em" text-anchor="start" x="1372.20823208" y="1072.68039563">Green Coast</text><circle cx="170.150547484" cy="1032.39085949" r="4.096" /><text font-size="2em" text-anchor="start" x="186.534547484" y="1041.60685949">Green Peaks</text><circle cx="2834.12354672" cy="538.753956104" r="4.096" /><text font-size="2em" text-anchor="start" x="2850.50754672" y="547.969956104">Guardian's Basin</text><circle cx="1817.67301569" cy="1281.59074084" r="4.096" /><text font-size="2em" text-anchor="start" x="1834.05701569" y="1290.80674084">Hanbert Cape</text><circle cx="2704.33497596" cy="946.175930196" r="4.096" /><text font-size="2em" text-anchor="start" x="2720.71897596" y="955.391930196">Jeb's Island Resort</text><circle cx="2564.32469333" cy="1025.10078362" r="4.096" /><text font-size="2em" text-anchor="start" x="2580.70869333" y="1034.31678362">Kerbal Space Centre</text><circle cx="1258.13304889" cy="1598.46729956" r="4.096" /><text font-size="2em" text-anchor="start" x="1274.51704889" y="1607.68329956">Kerbin's Bottom</text><circle cx="3738.681344" cy="1100.52709262" r="4.096" /><text font-size="2em" text-anchor="end" x="3722.297344" y="1109.74309262">Kerbin's Heart Science Centre</text><circle cx="2690.55089778" cy="895.679374222" r="4.096" /><text font-size="2em" text-anchor="start" x="2706.93489778" y="904.895374222">Kerman Lake</text><circle cx="1908.42311111" cy="903.329678222" r="4.096" /><text font-size="2em" text-anchor="start" x="1924.80711111" y="912.545678222">KKVLA</text><circle cx="2037.30716444" cy="765.673016889" r="4.096" /><text font-size="2em" text-anchor="start" x="2053.69116444" y="774.889016889">Lake Dermal</text><circle cx="3575.50565951" cy="685.91021649" r="4.096" /><text font-size="2em" text-anchor="start" x="3591.88965951" y="695.12621649">Lodnie Isles</text><circle cx="3716.11067733" cy="999.461569422" r="4.096" /><text font-size="2em" text-anchor="end" x="3699.72667733" y="1008.67756942">Lushlands</text><circle cx="2523.98478222" cy="791.743374222" r="4.096" /><text font-size="2em" text-anchor="start" x="2540.36878222" y="800.959374222">Mount Snowey</text><circle cx="1747.17261569" cy="789.044348056" r="4.096" /><text font-size="2em" text-anchor="start" x="1763.55661569" y="798.260348056">Old KSC</text><circle cx="2532.58296889" cy="118.641095111" r="4.096" /><text font-size="2em" text-anchor="start" x="2548.96696889" y="127.857095111">Polar Research Centre</text><circle cx="449.625884444" cy="1092.48084196" r="4.096" /><text font-size="2em" text-anchor="start" x="466.009884444" y="1101.69684196">Round Range</text><circle cx="2958.85710222" cy="754.560455111" r="4.096" /><text font-size="2em" text-anchor="start" x="2975.24110222" y="763.776455111">Sanctuary Mouth</text><circle cx="3333.63427556" cy="1060.7890432" r="4.096" /><text font-size="2em" text-anchor="start" x="3350.01827556" y="1070.0050432">Sandy Island</text><circle cx="225.206727111" cy="1412.18008178" r="4.096" /><text font-size="2em" text-anchor="start" x="241.590727111" y="1421.39608178">Sea's End</text><circle cx="3606.69412736" cy="1590.57169848" r="4.096" /><text font-size="2em" text-anchor="start" x="3623.07812736" y="1599.78769848">South Hope</text><circle cx="1210.91072" cy="1226.75871289" r="4.096" /><text font-size="2em" text-anchor="start" x="1227.29472" y="1235.97471289">South Point</text><circle cx="940.559928889" cy="1988.046848" r="4.096" /><text font-size="2em" text-anchor="start" x="956.943928889" y="1997.262848">South Pole Station</text><circle cx="1569.04789333" cy="1636.31024356" r="4.096" /><text font-size="2em" text-anchor="start" x="1585.43189333" y="1645.52624356">The Shelf</text><circle cx="770.351786667" cy="1588.27186608" r="4.096" /><text font-size="2em" text-anchor="start" x="786.735786667" y="1597.48786608">Valentina's Landing</text></svg>