<?xml version="1.0" encoding="utf-8" ?>
<svg baseProfile="full" height="2048" version="1.1" width="4096" xmlns="http://www.w3.org/2000/svg" xmlns:ev="http://www.w3.org/2001/xml-events" xmlns:xlink="http://www.w3.org/1999/xlink"><defs /><path d="M 180.75,1034.78 206.47,1040.56 232.2,1046.31 257.95,1052.03 283.71,1057.71 309.5,1063.33 335.32,1068.9 361.16,1074.39 387.04,1079.8 412.96,1085.13 438.91,1090.36 417.49,1093.0 M 420.19,1079.62 438.91,1090.36" fill="none" stroke="gold" stroke-width="3.072px" /><path d="M 1737.32,794.76 1713.57,808.9 1690.17,823.29 1667.1,837.93 1644.34,852.78 1621.85,867.82 1599.62,883.05 1577.62,898.43 1555.82,913.95 1534.2,929.59 1512.72,945.33 1491.38,961.16 1470.13,977.05 1448.96,992.99 1427.84,1008.97 1406.74,1024.96 1385.64,1040.95 1364.51,1056.92 1376.73,1039.12 M 1384.96,1050.01 1364.51,1056.92" fill="none" stroke="blue" stroke-width="3.072px" /><path d="M 2299.7,626.08 2328.35,639.44 2356.2,653.38 2383.3,667.84 2409.65,682.78 2435.32,698.18 2460.32,713.98 2484.69,730.17 2508.48,746.71 2531.72,763.57 2554.46,780.72 2576.73,798.13 2598.58,815.78 2620.03,833.64 2641.13,851.69 2661.91,869.92 2682.42,888.29 2662.61,879.71 M 2671.72,869.54 2682.42,888.29" fill="none" stroke="blue" stroke-width="3.072px" /><path d="M 2484.72,124.9 2384.87,142.94 2308.39,163.5 2249.25,185.73 2202.72,209.09 2165.39,233.26 2134.87,258.0 2109.48,283.17 2088.0,308.65 2069.59,334.38 2053.6,360.31 2039.55,386.38 2027.08,412.59 2015.91,438.89 2005.82,465.28 1996.63,491.74 1988.2,518.26 1980.43,544.82 1973.2,571.44 1966.45,598.08 1960.11,624.76 1954.12,651.47 1948.45,678.2 1943.03,704.95 1937.85,731.72 1932.88,758.51 1928.07,785.3 1923.42,812.11 1918.89,838.93 1914.47,865.76 1910.13,892.6 1906.66,871.29 M 1920.14,873.46 1910.13,892.6" fill="none" stroke="tomato" stroke-width="3.072px" /><path d="M 3580.82,695.74 3593.46,719.86 3605.64,744.08 3617.41,768.38 3628.82,792.76 3639.92,817.19 3650.75,841.69 3661.35,866.22 3671.75,890.8 3681.99,915.41 3692.1,940.05 3702.12,964.71 3712.06,989.38 3698.07,972.94 M 3710.74,967.83 3712.06,989.38" fill="none" stroke="blue" stroke-width="3.072px" /><path d="M 212.59,1409.24 182.3,1401.66 152.48,1393.43 123.16,1384.6 94.34,1375.2 66.03,1365.24 38.22,1354.75 10.92,1343.77 0.0,1339.11 M 4096.0,1339.11 4080.11,1332.33 4053.8,1320.45 4027.95,1308.15 4002.56,1295.47 3977.61,1282.43 3953.08,1269.06 3928.95,1255.37 3905.2,1241.4 3881.79,1227.17 3858.72,1212.69 3835.96,1197.99 3813.47,1183.1 3791.24,1168.02 3769.24,1152.78 3747.45,1137.41 3725.84,1121.9 3704.38,1106.3 3683.05,1090.6 3661.83,1074.84 3640.69,1059.02 3619.61,1043.17 3640.08,1050.02 M 3631.87,1060.93 3619.61,1043.17" fill="none" stroke="gold" stroke-width="3.072px" /><path d="M 1914.51,509.85 1923.31,484.81 1932.88,459.83 1943.36,434.93 1954.89,410.12 1967.7,385.42 1982.04,360.85 1998.23,336.44 2016.7,312.22 2038.01,288.25 2062.87,264.6 2092.28,241.35 2127.57,218.65 2170.55,196.66 2223.71,175.67 2290.36,156.08 2374.6,138.49 2480.65,123.74 2461.31,133.32 M 2459.43,119.8 2480.65,123.74" fill="none" stroke="gold" stroke-width="3.072px" /><path d="M 2698.98,902.72 2719.77,920.31 2740.38,938.01 2760.84,955.78 2781.19,973.63 2801.45,991.52 2821.65,1009.44 2841.83,1027.38 2862.02,1045.31 2882.24,1063.23 2902.53,1081.1 2922.91,1098.92 2943.43,1116.67 2964.1,1134.33 2984.97,1151.87 3006.06,1169.29 3027.41,1186.56 3049.04,1203.66 3071.0,1220.56 3093.31,1237.26 3116.01,1253.72 3139.13,1269.92 3162.71,1285.83 3186.78,1301.43 3211.36,1316.68 3236.51,1331.57 3262.23,1346.05 3288.57,1360.1 3315.55,1373.69 3343.2,1386.77 3371.53,1399.31 3400.56,1411.27 3430.3,1422.62 3460.75,1433.32 3491.91,1443.33 3523.77,1452.6 3556.31,1461.1 3589.49,1468.8 3623.29,1475.66 3657.64,1481.64 3692.48,1486.72 3727.75,1490.86 3763.37,1494.05 3799.25,1496.26 3835.29,1497.49 3871.41,1497.73 3907.51,1496.98 3943.48,1495.23 3979.23,1492.51 4014.68,1488.82 4049.74,1484.19 4084.34,1478.64 4096.0,1476.44 M 0.0,1476.44 22.4,1472.2 55.89,1464.91 88.74,1456.78 120.93,1447.88 152.43,1438.22 183.22,1427.85 213.3,1416.8 196.43,1430.27 M 191.72,1417.45 213.3,1416.8" fill="none" stroke="tomato" stroke-width="3.072px" /><path d="M 438.73,1091.7 411.61,1089.66 384.5,1087.52 357.41,1085.27 330.35,1082.91 303.29,1080.45 276.26,1077.89 249.25,1075.24 222.25,1072.5 195.27,1069.68 168.3,1066.79 141.36,1063.82 114.42,1060.78 87.51,1057.68 60.6,1054.52 33.71,1051.31 6.83,1048.05 0.0,1047.22 M 4096.0,1047.22 4075.95,1044.76 4049.09,1041.42 4022.24,1038.06 3995.39,1034.68 3968.54,1031.27 3941.7,1027.86 3914.86,1024.43 3888.02,1021.01 3861.18,1017.59 3834.33,1014.18 3807.49,1010.79 3780.63,1007.43 3753.77,1004.09 3726.9,1000.78 3748.06,996.5 M 3746.4,1010.06 3726.9,1000.78" fill="none" stroke="skyblue" stroke-width="3.072px" /><path d="M 1365.49,1058.46 1389.61,1045.93 1413.71,1033.37 1437.79,1020.79 1461.88,1008.22 1485.98,995.67 1510.13,983.16 1534.34,970.7 1558.62,958.32 1583.0,946.03 1607.49,933.85 1632.1,921.79 1656.86,909.88 1681.77,898.13 1706.86,886.56 1732.14,875.19 1757.63,864.03 1783.33,853.12 1809.26,842.46 1835.43,832.07 1861.85,821.98 1888.53,812.21 1915.48,802.76 1942.7,793.67 1970.19,784.96 1997.96,776.63 2026.01,768.72 2008.16,780.85 M 2004.45,767.71 2026.01,768.72" fill="none" stroke="skyblue" stroke-width="3.072px" /><path d="M 3734.94,1090.32 3725.93,1065.55 3716.96,1040.77 3708.0,1016.0 3699.04,991.22 3690.05,966.45 3680.99,941.69 3671.84,916.94 3662.58,892.22 3653.18,867.52 3643.6,842.86 3633.8,818.23 3623.77,793.65 3613.45,769.12 3602.81,744.65 3591.79,720.24 3580.36,695.92 3595.25,711.55 M 3582.89,717.36 3580.36,695.92" fill="none" stroke="gold" stroke-width="3.072px" /><path d="M 1365.07,1057.74 1388.02,1043.48 1410.95,1029.2 1433.86,1014.91 1456.79,1000.63 1479.75,986.38 1502.77,972.18 1525.87,958.04 1549.08,943.99 1572.4,930.03 1595.87,916.2 1619.51,902.5 1643.33,888.96 1667.37,875.6 1691.62,862.43 1716.13,849.48 1740.9,836.77 1765.96,824.32 1791.32,812.15 1816.99,800.28 1843.0,788.73 1869.35,777.53 1896.05,766.7 1923.13,756.27 1950.57,746.25 1978.39,736.68 2006.59,727.56 2035.17,718.94 2064.12,710.82 2093.43,703.24 2123.1,696.22 2153.11,689.77 2183.44,683.92 2214.07,678.69 2244.97,674.08 2276.11,670.13 2307.46,666.84 2338.98,664.22 2370.64,662.29 2402.4,661.05 2434.21,660.5 2466.03,660.65 2497.82,661.5 2529.54,663.04 2561.15,665.26 2592.6,668.17 2623.87,671.75 2654.91,675.98 2685.69,680.86 2716.19,686.36 2746.39,692.47 2776.25,699.17 2805.77,706.44 2834.93,714.25 2863.72,722.59 2892.14,731.42 2920.18,740.74 2947.83,750.51 2926.25,750.12 M 2930.8,737.25 2947.83,750.51" fill="none" stroke="skyblue" stroke-width="3.072px" /><path d="M 3623.5,1590.12 3665.3,1588.07 3706.69,1584.71 3747.49,1580.06 3787.54,1574.17 3826.71,1567.09 3864.88,1558.86 3901.96,1549.55 3937.9,1539.22 3972.66,1527.93 4006.21,1515.74 4038.57,1502.73 4069.75,1488.94 4096.0,1476.27 M 0.0,1476.27 3.78,1474.44 32.7,1459.29 60.56,1443.54 87.41,1427.24 113.31,1410.43 138.32,1393.16 162.48,1375.47 185.86,1357.4 208.52,1338.98 230.52,1320.25 251.9,1301.24 272.72,1281.96 293.02,1262.46 312.87,1242.75 332.3,1222.86 351.36,1202.8 370.08,1182.6 388.53,1162.28 406.72,1141.85 424.71,1121.33 442.53,1100.74 434.29,1120.7 M 423.96,1111.76 442.53,1100.74" fill="none" stroke="skyblue" stroke-width="3.072px" /><path d="M 2970.07,750.96 2997.56,742.52 3025.37,734.52 3053.5,726.98 3081.94,719.93 3110.68,713.39 3139.71,707.36 3169.01,701.87 3198.56,696.94 3228.35,692.58 3258.34,688.8 3288.51,685.62 3318.84,683.04 3349.29,681.07 3379.83,679.72 3410.43,679.0 3441.04,678.9 3471.65,679.43 3502.21,680.59 3532.69,682.36 3563.06,684.75 3542.11,689.95 M 3543.18,676.34 3563.06,684.75" fill="none" stroke="skyblue" stroke-width="3.072px" /><path d="M 784.47,1582.49 818.15,1567.58 850.12,1551.85 880.47,1535.38 909.31,1518.23 936.72,1500.48 962.8,1482.18 987.65,1463.39 1011.37,1444.17 1034.06,1424.54 1055.79,1404.56 1076.65,1384.26 1096.72,1363.67 1116.07,1342.82 1134.77,1321.75 1152.88,1300.47 1170.47,1279.0 1187.58,1257.37 1204.27,1235.6 1197.23,1256.01 M 1186.39,1247.7 1204.27,1235.6" fill="none" stroke="blue" stroke-width="3.072px" /><path d="M 2424.05,902.26 2443.28,918.58 2462.35,934.99 2481.29,951.47 2500.12,968.01 2518.87,984.6 2537.56,1001.22 2556.22,1017.87 2536.39,1009.33 M 2545.48,999.14 2556.22,1017.87" fill="none" stroke="gold" stroke-width="3.072px" /><path d="M 3618.19,1598.56 3647.45,1617.46 3678.94,1635.67 3712.88,1653.1 3749.46,1669.63 3788.89,1685.16 3831.34,1699.52 3876.91,1712.59 3925.64,1724.19 3977.43,1734.17 4032.07,1742.37 4089.14,1748.63 4096.0,1749.12 M 0.0,1749.12 52.1,1752.84 112.23,1754.9 172.73,1754.77 232.76,1752.45 291.53,1748.0 348.34,1741.5 402.66,1733.09 454.1,1722.91 502.46,1711.12 547.66,1697.89 589.74,1683.38 628.83,1667.73 665.09,1651.08 698.72,1633.56 729.94,1615.26 758.95,1596.29 745.55,1613.21 M 738.08,1601.78 758.95,1596.29" fill="none" stroke="skyblue" stroke-width="3.072px" /><path d="M 2829.39,549.04 2818.29,574.44 2807.87,599.94 2798.06,625.5 2788.78,651.14 2779.95,676.83 2771.53,702.57 2763.45,728.35 2755.69,754.18 2748.18,780.03 2740.91,805.91 2733.84,831.82 2726.94,857.75 2720.17,883.7 2713.53,909.66 2706.97,935.63 2705.36,914.1 M 2718.6,917.44 2706.97,935.63" fill="none" stroke="tomato" stroke-width="3.072px" /><path d="M 1199.5,1226.5 1171.07,1225.59 1142.66,1224.33 1114.29,1222.71 1085.98,1220.74 1057.72,1218.42 1029.53,1215.76 1001.41,1212.75 973.37,1209.42 945.42,1205.77 917.57,1201.8 889.81,1197.52 862.15,1192.94 834.61,1188.07 807.16,1182.92 779.83,1177.51 752.62,1171.83 725.51,1165.91 698.51,1159.75 671.63,1153.36 644.85,1146.76 618.17,1139.96 591.6,1132.97 565.12,1125.81 538.74,1118.48 512.44,1110.99 486.23,1103.37 460.09,1095.62 481.66,1094.9 M 477.78,1107.99 460.09,1095.62" fill="none" stroke="blue" stroke-width="3.072px" /><path d="M 2686.67,863.26 2695.42,838.7 2704.38,814.17 2713.56,789.68 2723.0,765.24 2732.75,740.84 2742.84,716.51 2753.32,692.24 2764.24,668.04 2775.67,643.93 2787.67,619.91 2800.31,596.01 2813.69,572.23 2827.9,548.59 2823.2,569.66 M 2811.5,562.63 2827.9,548.59" fill="none" stroke="limegreen" stroke-width="3.072px" /><path d="M 2947.55,751.24 2919.14,743.3 2890.42,735.84 2861.4,728.86 2832.08,722.4 2802.49,716.48 2772.63,711.1 2742.53,706.28 2712.21,702.05 2681.69,698.4 2651.0,695.37 2620.17,692.94 2589.22,691.14 2558.2,689.96 2527.13,689.42 2496.05,689.51 2464.99,690.24 2433.98,691.59 2403.07,693.57 2372.27,696.18 2341.63,699.39 2311.16,703.2 2280.9,707.61 2250.87,712.58 2221.09,718.12 2191.57,724.2 2162.34,730.81 2133.41,737.93 2104.78,745.53 2076.46,753.61 2048.45,762.13 2066.06,749.64 M 2070.03,762.7 2048.45,762.13" fill="none" stroke="skyblue" stroke-width="3.072px" /><path d="M 840.42,1982.91 659.73,1965.4 547.32,1943.91 474.48,1920.44 424.46,1895.89 388.26,1870.71 360.93,1845.15 339.57,1819.32 322.4,1793.31 308.26,1767.17 296.41,1740.93 286.29,1714.62 277.53,1688.25 269.85,1661.83 263.05,1635.38 256.96,1608.89 251.46,1582.39 246.45,1555.86 241.86,1529.31 237.63,1502.75 233.69,1476.17 230.01,1449.58 226.55,1422.99 235.96,1442.42 M 222.42,1444.18 226.55,1422.99" fill="none" stroke="gold" stroke-width="3.072px" /><path d="M 760.17,1579.68 736.04,1557.9 713.58,1535.7 692.62,1513.14 672.98,1490.27 654.5,1467.12 637.06,1443.73 620.55,1420.13 604.84,1396.34 589.86,1372.38 575.52,1348.29 561.74,1324.06 548.46,1299.72 535.63,1275.29 523.18,1250.77 511.06,1226.18 499.24,1201.52 487.66,1176.81 476.29,1152.05 465.09,1127.25 454.03,1102.43 468.6,1118.35 M 456.13,1123.91 454.03,1102.43" fill="none" stroke="gold" stroke-width="3.072px" /><path d="M 108.12,872.24 83.25,883.07 58.56,894.1 34.03,905.31 9.66,916.68 0.0,921.27 M 4096.0,921.27 4081.44,928.2 4057.34,939.85 4033.35,951.61 4009.46,963.47 3985.65,975.41 3961.91,987.41 3938.21,999.46 3914.55,1011.55 3890.91,1023.65 3867.26,1035.75 3843.6,1047.83 3819.91,1059.89 3796.17,1071.89 3772.36,1083.84 3748.48,1095.7 3763.78,1080.48 M 3769.86,1092.7 3748.48,1095.7" fill="none" stroke="gold" stroke-width="3.072px" /><path d="M 784.86,1582.91 819.55,1568.99 852.59,1554.19 884.04,1538.59 913.98,1522.28 942.49,1505.31 969.65,1487.75 995.57,1469.65 1020.32,1451.07 1044.0,1432.06 1066.69,1412.65 1088.48,1392.9 1109.43,1372.82 1129.63,1352.47 1149.14,1331.85 1168.03,1311.01 1186.36,1289.96 1204.17,1268.73 1221.54,1247.34 1238.5,1225.81 1255.1,1204.14 1271.4,1182.38 1287.42,1160.51 1303.22,1138.57 1318.83,1116.56 1334.29,1094.51 1349.64,1072.41 1343.57,1093.12 M 1332.35,1085.34 1349.64,1072.41" fill="none" stroke="skyblue" stroke-width="3.072px" /><path d="M 1897.37,903.02 1871.03,902.44 1844.67,902.04 1818.31,901.84 1791.95,901.83 1765.59,902.02 1739.23,902.41 1712.88,902.99 1686.55,903.76 1660.22,904.72 1633.91,905.87 1607.62,907.22 1581.35,908.74 1555.1,910.45 1528.88,912.34 1502.69,914.41 1476.52,916.65 1450.39,919.06 1424.29,921.64 1398.22,924.37 1372.19,927.27 1391.79,918.22 M 1393.3,931.79 1372.19,927.27" fill="none" stroke="gold" stroke-width="3.072px" /><path d="M 2046.56,758.93 2069.63,742.6 2093.23,726.59 2117.39,710.92 2142.17,695.63 2167.58,680.74 2193.67,666.3 2220.46,652.33 2247.98,638.88 2276.26,625.99 2260.46,640.7 M 2254.79,628.27 2276.26,625.99" fill="none" stroke="blue" stroke-width="3.072px" /><path d="M 1274.1,1602.42 1310.94,1610.62 1348.9,1617.76 1387.86,1623.81 1427.68,1628.71 1468.21,1632.43 1509.27,1634.92 1550.65,1636.16 1529.97,1642.37 M 1530.38,1628.72 1550.65,1636.16" fill="none" stroke="gold" stroke-width="3.072px" /><path d="M 1464.82,306.17 1495.24,328.85 1522.01,352.06 1545.75,375.7 1566.97,399.69 1586.06,423.97 1603.37,448.5 1619.15,473.24 1633.63,498.14 1647.0,523.2 1659.41,548.38 1670.98,573.68 1681.84,599.06 1692.07,624.53 1701.75,650.08 1710.95,675.68 1719.74,701.34 1728.15,727.04 1736.25,752.79 1744.07,778.57 1731.59,760.95 M 1744.66,756.99 1744.07,778.57" fill="none" stroke="gold" stroke-width="3.072px" /><path d="M 3714.64,1010.23 3711.08,1036.2 3707.52,1062.18 3703.94,1088.16 3700.33,1114.13 3696.68,1140.11 3692.98,1166.07 3689.22,1192.04 3685.37,1218.0 3681.43,1243.95 3677.38,1269.89 3673.2,1295.83 3668.86,1321.75 3664.36,1347.67 3659.65,1373.56 3654.72,1399.45 3649.53,1425.31 3644.04,1451.16 3638.2,1476.98 3631.96,1502.78 3625.27,1528.54 3618.03,1554.26 3610.16,1579.94 3609.63,1558.36 M 3622.69,1562.36 3610.16,1579.94" fill="none" stroke="skyblue" stroke-width="3.072px" /><path d="M 1958.02,865.87 1949.39,891.19 1940.89,916.54 1932.51,941.9 1924.2,967.28 1915.96,992.67 1907.74,1018.06 1899.53,1043.46 1891.3,1068.85 1883.03,1094.23 1874.69,1119.6 1866.25,1144.96 1857.68,1170.3 1848.96,1195.61 1840.06,1220.89 1830.94,1246.14 1821.57,1271.34 1822.31,1249.77 M 1835.11,1254.53 1821.57,1271.34" fill="none" stroke="gold" stroke-width="3.072px" /><path d="M 1566.47,1647.07 1559.88,1672.41 1552.46,1697.72 1544.0,1722.99 1534.24,1748.2 1522.83,1773.34 1509.28,1798.4 1492.87,1823.34 1472.57,1848.11 1446.75,1872.66 1412.82,1896.86 1366.41,1920.52 1299.68,1943.27 1198.11,1964.36 1035.84,1982.2 1055.45,1973.18 M 1056.94,1986.75 1035.84,1982.2" fill="none" stroke="gold" stroke-width="3.072px" /><path d="M 2573.76,1019.72 2593.85,1008.26 2613.95,996.83 2634.08,985.42 2654.25,974.04 2674.48,962.72 2694.77,951.45 2680.18,967.36 M 2673.55,955.42 2694.77,951.45" fill="none" stroke="limegreen" stroke-width="3.072px" /><path d="M 460.54,1092.93 487.38,1093.95 514.22,1094.85 541.07,1095.63 567.92,1096.29 594.79,1096.83 621.65,1097.25 648.52,1097.54 675.39,1097.71 702.27,1097.75 729.14,1097.68 756.01,1097.47 782.88,1097.15 809.74,1096.7 836.61,1096.12 863.46,1095.43 890.31,1094.61 917.15,1093.68 943.98,1092.63 970.8,1091.47 997.61,1090.19 1024.41,1088.8 1051.2,1087.3 1077.98,1085.7 1104.74,1083.99 1131.49,1082.18 1158.22,1080.27 1184.95,1078.27 1211.66,1076.18 1238.35,1074.0 1265.03,1071.74 1291.7,1069.4 1318.35,1066.98 1344.99,1064.5 1325.23,1073.2 M 1323.96,1059.6 1344.99,1064.5" fill="none" stroke="skyblue" stroke-width="3.072px" /><path d="M 1813.16,1291.63 1801.64,1316.64 1789.68,1341.56 1777.23,1366.39 1764.22,1391.12 1750.57,1415.72 1736.19,1440.17 1721.0,1464.47 1704.87,1488.59 1687.69,1512.49 1669.29,1536.16 1649.52,1559.54 1628.17,1582.6 1605.02,1605.29 1579.8,1627.53 1590.64,1608.87 M 1599.67,1619.1 1579.8,1627.53" fill="none" stroke="gold" stroke-width="3.072px" /><path d="M 3587.89,687.39 3618.24,691.47 3648.35,696.14 3678.22,701.4 3707.82,707.23 3737.12,713.6 3766.12,720.5 3794.8,727.92 3823.15,735.83 3851.17,744.21 3878.85,753.04 3906.19,762.3 3933.2,771.96 3959.89,782.01 3986.24,792.43 4012.28,803.19 4038.02,814.27 4063.46,825.66 4088.62,837.32 4096.0,840.86 M 0.0,840.86 17.51,849.25 42.15,861.41 66.56,873.8 90.75,886.38 114.74,899.15 138.54,912.08 162.18,925.16 185.68,938.37 209.05,951.68 232.31,965.09 255.49,978.57 278.6,992.11 301.66,1005.68 324.7,1019.28 347.73,1032.89 370.77,1046.49 393.85,1060.05 416.97,1073.58 440.18,1087.04 419.04,1082.66 M 425.89,1070.85 440.18,1087.04" fill="none" stroke="skyblue" stroke-width="3.072px" /><path d="M 3606.0,1579.72 3604.39,1552.97 3602.91,1526.22 3601.55,1499.47 3600.28,1472.72 3599.1,1445.97 3597.98,1419.22 3596.93,1392.46 3595.93,1365.71 3594.98,1338.95 3594.07,1312.19 3593.19,1285.44 3592.35,1258.68 3591.53,1231.92 3590.73,1205.17 3589.95,1178.41 3589.18,1151.65 3588.43,1124.89 3587.68,1098.13 3586.95,1071.38 3586.22,1044.62 3585.49,1017.86 3584.76,991.1 3584.02,964.34 3583.28,937.58 3582.54,910.83 3581.78,884.07 3581.01,857.31 3580.22,830.55 3579.41,803.8 3578.58,777.04 3577.72,750.28 3576.82,723.53 3575.89,696.77 3583.43,717.0 M 3569.78,717.47 3575.89,696.77" fill="none" stroke="skyblue" stroke-width="3.072px" /><path d="M 2699.95,889.92 2723.46,875.74 2747.19,861.75 2771.19,847.96 2795.47,834.41 2820.05,821.11 2844.95,808.08 2870.19,795.35 2895.79,782.93 2921.76,770.86 2948.13,759.16 2932.18,773.71 M 2926.64,761.23 2948.13,759.16" fill="none" stroke="blue" stroke-width="3.072px" /><path d="M 1348.81,1071.77 1333.04,1090.36 1317.19,1108.91 1301.21,1127.41 1285.09,1145.85 1268.8,1164.21 1252.3,1182.49 1235.57,1200.67 1218.59,1218.73 1227.64,1199.14 M 1237.59,1208.49 1218.59,1218.73" fill="none" stroke="blue" stroke-width="3.072px" /><path d="M 2569.36,127.05 2641.63,149.04 2695.14,172.35 2735.97,196.5 2768.02,221.23 2793.79,246.35 2814.99,271.76 2832.74,297.38 2847.84,323.17 2860.88,349.08 2872.29,375.1 2882.36,401.19 2891.36,427.35 2899.46,453.56 2906.81,479.82 2913.54,506.12 2919.74,532.44 2925.49,558.8 2930.84,585.18 2935.86,611.58 2940.59,637.99 2945.07,664.42 2949.33,690.87 2953.4,717.32 2957.31,743.79 2947.57,724.52 M 2961.07,722.53 2957.31,743.79" fill="none" stroke="gold" stroke-width="3.072px" /><path d="M 3344.44,1062.12 3369.87,1065.2 3395.32,1068.21 3420.79,1071.16 3446.27,1074.04 3471.77,1076.85 3497.29,1079.57 3522.83,1082.21 3548.38,1084.75 3573.95,1087.21 3599.54,1089.57 3625.15,1091.83 3650.78,1093.98 3676.43,1096.03 3702.09,1097.97 3727.77,1099.79 3706.86,1105.15 M 3707.82,1091.53 3727.77,1099.79" fill="none" stroke="gold" stroke-width="3.072px" /><path d="M 2293.72,630.7 2306.46,653.44 2318.64,676.28 2330.33,699.22 2341.58,722.24 2352.44,745.34 2362.95,768.5 2373.16,791.73 2383.1,815.0 2392.81,838.32 2402.31,861.67 2411.65,885.06 2397.71,868.57 M 2410.4,863.51 2411.65,885.06" fill="none" stroke="gold" stroke-width="3.072px" /><path d="M 2026.01,762.56 1997.66,755.11 1969.02,748.12 1940.12,741.6 1910.97,735.57 1881.56,730.06 1851.93,725.07 1822.08,720.61 1792.04,716.71 1761.83,713.37 1731.47,710.61 1701.0,708.42 1670.43,706.83 1639.79,705.83 1609.12,705.42 1578.45,705.62 1547.8,706.41 1517.2,707.8 1486.69,709.78 1456.29,712.34 1426.03,715.48 1395.92,719.18 1366.01,723.44 1336.3,728.25 1306.81,733.58 1277.56,739.43 1248.57,745.78 1219.84,752.61 1191.39,759.9 1163.22,767.64 1135.33,775.8 1107.72,784.37 1080.4,793.33 1053.37,802.66 1026.6,812.34 1000.11,822.34 973.88,832.66 947.91,843.26 922.18,854.14 896.67,865.26 871.39,876.62 846.31,888.18 821.41,899.95 796.69,911.88 772.13,923.98 747.71,936.21 723.42,948.57 699.23,961.02 675.13,973.57 651.11,986.18 627.13,998.84 603.2,1011.54 579.28,1024.25 555.36,1036.97 531.42,1049.66 507.45,1062.32 483.42,1074.93 459.32,1087.47 474.33,1071.96 M 480.64,1084.08 459.32,1087.47" fill="none" stroke="skyblue" stroke-width="3.072px" /><path d="M 3706.24,994.91 3681.9,983.75 3657.52,972.64 3633.07,961.6 3608.54,950.65 3583.92,939.81 3559.19,929.08 3534.35,918.49 3509.37,908.05 3484.25,897.78 3458.97,887.69 3433.53,877.8 3407.92,868.13 3382.12,858.69 3356.13,849.5 3329.94,840.58 3303.55,831.94 3276.95,823.6 3250.13,815.58 3223.1,807.88 3195.86,800.54 3168.4,793.56 3140.73,786.95 3112.85,780.74 3084.77,774.94 3056.49,769.56 3028.03,764.61 2999.4,760.11 2970.6,756.07 2991.83,752.16 M 2989.93,765.68 2970.6,756.07" fill="none" stroke="skyblue" stroke-width="3.072px" /><path d="M 439.27,1095.94 415.12,1103.93 390.91,1111.81 366.61,1119.57 342.23,1127.19 317.76,1134.68 293.2,1142.01 268.53,1149.17 243.76,1156.16 218.89,1162.97 193.9,1169.57 168.8,1175.97 143.58,1182.15 161.84,1170.65 M 165.09,1183.91 143.58,1182.15" fill="none" stroke="limegreen" stroke-width="3.072px" /><path d="M 2557.22,1016.88 2539.81,996.75 2522.36,976.64 2504.83,956.57 2487.19,936.54 2469.4,916.58 2451.42,896.69 2433.23,876.9 2414.79,857.23 2396.05,837.68 2376.98,818.28 2357.54,799.05 2337.68,780.01 2317.37,761.18 2296.55,742.59 2275.18,724.25 2253.21,706.2 2230.6,688.46 2207.28,671.07 2183.21,654.06 2158.34,637.47 2132.61,621.33 2105.98,605.69 2078.39,590.59 2049.8,576.08 2020.17,562.2 1989.46,549.02 1957.66,536.57 1924.76,524.93 1946.34,525.33 M 1941.79,538.2 1924.76,524.93" fill="none" stroke="gold" stroke-width="3.072px" /><path d="M 2701.32,935.73 2693.8,909.84 2686.17,883.97 2698.51,901.68 M 2685.41,905.54 2686.17,883.97" fill="none" stroke="tomato" stroke-width="3.072px" /><path d="M 1924.56,525.23 1957.38,537.74 1989.03,551.05 2019.52,565.09 2048.88,579.81 2077.17,595.15 2104.43,611.07 2130.72,627.51 2156.08,644.43 2180.58,661.79 2204.28,679.55 2227.22,697.67 2249.48,716.12 2271.09,734.87 2292.12,753.88 2312.61,773.15 2332.61,792.63 2352.17,812.31 2371.34,832.16 2390.15,852.16 2408.66,872.3 2426.89,892.56 2444.89,912.91 2462.71,933.35 2480.36,953.85 2497.9,974.4 2515.35,994.99 2532.75,1015.6 2550.14,1036.21 2567.55,1056.82 2585.01,1077.4 2602.57,1097.95 2620.25,1118.44 2638.09,1138.86 2656.13,1159.2 2674.42,1179.43 2692.98,1199.55 2711.85,1219.53 2731.09,1239.35 2750.73,1258.99 2770.82,1278.43 2791.4,1297.65 2812.53,1316.63 2834.26,1335.32 2856.64,1353.71 2879.72,1371.77 2903.56,1389.46 2928.21,1406.74 2953.75,1423.57 2980.21,1439.92 3007.65,1455.73 3036.14,1470.96 3065.71,1485.56 3096.41,1499.47 3128.27,1512.64 3161.31,1525.0 3195.54,1536.49 3230.96,1547.05 3267.52,1556.62 3305.17,1565.13 3343.85,1572.53 3383.44,1578.77 3423.82,1583.78 3464.83,1587.54 3506.3,1590.01 3548.05,1591.17 3589.87,1591.01 3569.42,1597.92 M 3569.36,1584.26 3589.87,1591.01" fill="none" stroke="tomato" stroke-width="3.072px" /><path d="M 2554.23,1021.09 2529.14,1011.13 2504.05,1001.2 2478.92,991.29 2453.76,981.44 2428.55,971.64 2403.27,961.93 2377.93,952.31 2352.5,942.8 2326.98,933.41 2301.36,924.15 2275.63,915.05 2249.78,906.12 2223.79,897.37 2197.67,888.81 2171.41,880.47 2145.0,872.36 2118.44,864.48 2091.72,856.87 2064.84,849.52 2037.79,842.46 2010.58,835.69 1983.2,829.24 1955.67,823.11 1927.97,817.32 1900.11,811.88 1872.1,806.81 1843.95,802.11 1815.66,797.79 1787.24,793.87 1758.7,790.35 1779.86,786.08 M 1778.19,799.63 1758.7,790.35" fill="none" stroke="tomato" stroke-width="3.072px" /><path d="M 1241.55,1601.17 1201.04,1606.81 1159.75,1611.2 1117.86,1614.29 1075.57,1616.06 1033.09,1616.49 990.65,1615.59 948.48,1613.35 906.78,1609.79 865.74,1604.96 825.55,1598.89 786.34,1591.63 807.72,1588.64 M 805.24,1602.07 786.34,1591.63" fill="none" stroke="gold" stroke-width="3.072px" /><path d="M 2512.39,791.48 2483.4,791.11 2454.4,791.17 2425.41,791.65 2396.44,792.55 2367.51,793.87 2338.63,795.6 2309.81,797.75 2281.07,800.3 2252.41,803.26 2223.85,806.6 2195.4,810.34 2167.06,814.45 2138.85,818.92 2110.77,823.76 2082.82,828.94 2055.02,834.46 2027.36,840.3 1999.84,846.45 1972.48,852.9 1990.85,841.56 M 1993.98,854.85 1972.48,852.9" fill="none" stroke="gold" stroke-width="3.072px" /><path d="M 1360.83,939.38 1359.91,962.03 1359.0,984.67 1358.08,1007.32 1357.17,1029.96 1356.26,1052.61 1350.26,1031.87 M 1363.91,1032.42 1356.26,1052.61" fill="none" stroke="tomato" stroke-width="3.072px" /><path d="M 2965.24,763.71 2980.67,786.38 2995.69,809.16 3010.36,832.05 3024.72,855.03 3038.81,878.09 3052.68,901.21 3066.36,924.39 3079.89,947.61 3093.31,970.86 3106.65,994.13 3119.95,1017.41 3133.24,1040.7 3146.55,1063.98 3159.92,1087.25 3173.38,1110.48 3186.97,1133.69 3200.73,1156.84 3214.69,1179.93 3228.89,1202.96 3243.38,1225.9 3258.2,1248.75 3273.39,1271.49 3289.01,1294.1 3305.12,1316.57 3321.77,1338.88 3339.02,1361.0 3356.95,1382.93 3375.63,1404.62 3395.15,1426.06 3415.59,1447.21 3437.05,1468.03 3459.65,1488.49 3483.49,1508.54 3508.71,1528.14 3535.43,1547.21 3563.79,1565.71 3593.94,1583.55 3572.83,1578.99 M 3579.79,1567.24 3593.94,1583.55" fill="none" stroke="skyblue" stroke-width="3.072px" /><path d="M 1211.89,1237.58 1214.36,1264.55 1216.92,1291.52 1219.57,1318.48 1222.33,1345.44 1225.22,1372.39 1228.25,1399.33 1231.45,1426.27 1234.84,1453.2 1238.45,1480.13 1242.33,1507.04 1246.51,1533.94 1251.05,1560.82 1256.01,1587.69 1245.57,1568.79 M 1259.0,1566.31 1256.01,1587.69" fill="none" stroke="gold" stroke-width="3.072px" /><circle cx="1361.27968142" cy="928.527724089" r="4.096" /><text font-size="32.768px" text-anchor="start" x="1377.66368142" y="937.743724089">Arakebo</text><circle cx="2683.05294222" cy="873.537991111" r="4.096" /><text font-size="32.768px" text-anchor="start" x="2699.43694222" y="868.417991111">Ben Bay</text><circle cx="2415.64216889" cy="895.195704889" r="4.096" /><text font-size="32.768px" text-anchor="start" x="2432.02616889" y="904.411704889">Black Krags</text><circle cx="2288.00853333" cy="620.895573333" r="4.096" /><text font-size="32.768px" text-anchor="start" x="2304.39253333" y="630.111573333">Coaler Crater</text><circle cx="1961.57781333" cy="855.562467556" r="4.096" /><text font-size="32.768px" text-anchor="start" x="1977.96181333" y="864.778467556">Deadkerbal Pit</text><circle cx="118.355626667" cy="867.866737778" r="4.096" /><text font-size="32.768px" text-anchor="start" x="134.739626667" y="877.082737778">Donby Hole</text><circle cx="1451.26286222" cy="297.147278222" r="4.096" /><text font-size="32.768px" text-anchor="start" x="1467.64686222" y="306.363278222">Dull Spot</text><circle cx="1911.00136107" cy="520.423389867" r="4.096" /><text font-size="32.768px" text-anchor="start" x="1927.38536107" y="529.639389867">Dundard's Edge</text><circle cx="132.702435556" cy="1184.73910044" r="4.096" /><text font-size="32.768px" text-anchor="start" x="149.086435556" y="1193.95510044">Everkrest</text><circle cx="3610.92835556" cy="1036.62606791" r="4.096" /><text font-size="32.768px" text-anchor="start" x="3627.31235556" y="1045.84206791">Goldpool</text><circle cx="1355.8242304" cy="1063.46439111" r="4.096" /><text font-size="32.768px" text-anchor="start" x="1372.2082304" y="1072.68039111">Green Coast</text><circle cx="170.150547911" cy="1032.3908608" r="4.096" /><text font-size="32.768px" text-anchor="start" x="186.534547911" y="1041.6068608">Green Peaks</text><circle cx="2834.12354844" cy="538.753956978" r="4.096" /><text font-size="32.768px" text-anchor="start" x="2850.50754844" y="547.969956978">Guardian's Basin</text><circle cx="1817.6730112" cy="1281.59073849" r="4.096" /><text font-size="32.768px" text-anchor="start" x="1834.0570112" y="1290.80673849">Hanbert Cape</text><circle cx="2704.33497316" cy="946.175931733" r="4.096" /><text font-size="32.768px" text-anchor="start" x="2720.71897316" y="955.391931733">Jeb's Island Resort</text><circle cx="2564.32469333" cy="1025.10078862" r="4.096" /><text font-size="32.768px" text-anchor="start" x="2580.70869333" y="1034.31678862">Kerbal Space Centre</text><circle cx="1258.13304889" cy="1598.46729956" r="4.096" /><text font-size="32.768px" text-anchor="start" x="1274.51704889" y="1607.68329956">Kerbin's Bottom</text><circle cx="3738.681344" cy="1100.52709262" r="4.096" /><text font-size="32.768px" text-anchor="end" x="3722.297344" y="1109.74309262">Kerbin's Heart Science Centre</text><circle cx="2690.55089778" cy="895.679374222" r="4.096" /><text font-size="32.768px" text-anchor="start" x="2706.93489778" y="904.895374222">Kerman Lake</text><circle cx="1908.42311111" cy="903.329678222" r="4.096" /><text font-size="32.768px" text-anchor="start" x="1924.80711111" y="912.545678222">KKVLA</text><circle cx="2037.30716444" cy="765.673016889" r="4.096" /><text font-size="32.768px" text-anchor="start" x="2053.69116444" y="774.889016889">Lake Dermal</text><circle cx="3575.50565831" cy="685.9102208" r="4.096" /><text font-size="32.768px" text-anchor="start" x="3591.88965831" y="695.1262208">Lodnie Isles</text><circle cx="3716.11067733" cy="999.461569422" r="4.096" /><text font-size="32.768px" text-anchor="end" x="3699.72667733" y="1008.67756942">Lushlands</text><circle cx="2523.98478222" cy="791.743374222" r="4.096" /><text font-size="32.768px" text-anchor="start" x="2540.36878222" y="800.959374222">Mount Snowey</text><circle cx="1747.17261369" cy="789.044349156" r="4.096" /><text font-size="32.768px" text-anchor="start" x="1763.55661369" y="798.260349156">Old KSC</text><circle cx="2532.58296889" cy="118.641095111" r="4.096" /><text font-size="32.768px" text-anchor="start" x="2548.96696889" y="127.857095111">Polar Research Centre</text><circle cx="449.625884444" cy="1092.48084196" r="4.096" /><text font-size="32.768px" text-anchor="start" x="466.009884444" y="1101.69684196">Round Range</text><circle cx="2958.85710222" cy="754.560455111" r="4.096" /><text font-size="32.768px" text-anchor="start" x="2975.24110222" y="763.776455111">Sanctuary Mouth</text><circle cx="3333.63427556" cy="1060.7890432" r="4.096" /><text font-size="32.768px" text-anchor="start" x="3350.01827556" y="1070.0050432">Sandy Island</text><circle cx="225.206727111" cy="1412.18008178" r="4.096" /><text font-size="32.768px" text-anchor="start" x="241.590727111" y="1421.39608178">Sea's End</text><circle cx="3606.69412693" cy="1590.57170204" r="4.096" /><text font-size="32.768px" text-anchor="start" x="3623.07812693" y="1599.78770204">South Hope</text><circle cx="1210.91072" cy="1226.75871289" r="4.096" /><text font-size="32.768px" text-anchor="start" x="1227.29472" y="1235.97471289">South Point</text><circle cx="940.559928889" cy="1988.046848" r="4.096" /><text font-size="32.768px" text-anchor="start" x="956.943928889" y="1997.262848">South Pole Station</text><circle cx="1569.04789333" cy="1636.31024356" r="4.096" /><text font-size="32.768px" text-anchor="start" x="1585.43189333" y="1645.52624356">The Shelf</text><circle cx="770.351786667" cy="1588.27186631" r="4.096" /><text font-size="32.768px" text-anchor="start" x="786.735786667" y="1597.48786631">Valentina's Landing</text></svg>